<svg xmlns="http://www.w3.org/2000/svg" xmlns:xlink="http://www.w3.org/1999/xlink" width="2000" zoomAndPan="magnify" viewBox="0 0 1500 1499.999933" height="2000" preserveAspectRatio="xMidYMid meet" version="1.0"><defs><clipPath id="5ee48e9e78"><path d="M 887.859375 246.007812 L 1193.902344 246.007812 L 1193.902344 433.710938 L 887.859375 433.710938 Z M 887.859375 246.007812 " clip-rule="nonzero"/></clipPath><clipPath id="2cd98e5fd5"><path d="M 942.007812 264.855469 L 1011.265625 264.855469 L 1141.511719 395.09375 C 1139.980469 398.535156 1139.105469 402.3125 1139.105469 406.316406 C 1139.105469 421.464844 1151.351562 433.710938 1166.503906 433.710938 C 1181.65625 433.710938 1193.902344 421.464844 1193.902344 406.316406 C 1193.902344 391.164062 1181.65625 378.917969 1166.503906 378.917969 C 1162.265625 378.917969 1158.261719 379.910156 1154.710938 381.628906 L 1019.089844 246.007812 L 934.226562 246.007812 L 887.859375 292.367188 L 910.371094 296.53125 L 942.007812 264.898438 Z M 942.007812 264.855469 " clip-rule="nonzero"/></clipPath><linearGradient x1="246.91" gradientTransform="matrix(3.816001, 0, 0, 3.816001, 98.634367, 23.876439)" y1="107.399299" x2="246.91" gradientUnits="userSpaceOnUse" y2="58.210539" id="bf5e504373"><stop stop-opacity="1" stop-color="rgb(94.509888%, 65.879822%, 1.179504%)" offset="0"/><stop stop-opacity="1" stop-color="rgb(94.509888%, 65.684509%, 1.179504%)" offset="0.25"/><stop stop-opacity="1" stop-color="rgb(94.314575%, 65.293884%, 1.179504%)" offset="0.5"/><stop stop-opacity="1" stop-color="rgb(94.119263%, 64.903259%, 1.179504%)" offset="0.75"/><stop stop-opacity="1" stop-color="rgb(94.119263%, 64.608765%, 1.179504%)" offset="0.8125"/><stop stop-opacity="1" stop-color="rgb(94.119263%, 64.408875%, 1.179504%)" offset="0.875"/><stop stop-opacity="1" stop-color="rgb(93.92395%, 64.11438%, 1.179504%)" offset="1"/></linearGradient><clipPath id="a4c0fe4d0c"><path d="M 1039.625 396.886719 L 1208.214844 396.886719 L 1208.214844 792.195312 L 1039.625 792.195312 Z M 1039.625 396.886719 " clip-rule="nonzero"/></clipPath><clipPath id="8af28edafd"><path d="M 1208.214844 764.789062 C 1208.214844 752.960938 1200.730469 742.929688 1190.238281 739.109375 L 1190.238281 546.09375 L 1041.039062 396.886719 L 1039.625 396.886719 L 1084.570312 467.105469 L 1171.386719 553.917969 L 1171.386719 739.109375 C 1160.894531 742.960938 1153.410156 753.003906 1153.410156 764.789062 C 1153.410156 779.941406 1165.664062 792.195312 1180.816406 792.195312 C 1195.960938 792.195312 1208.214844 779.941406 1208.214844 764.789062 Z M 1208.214844 764.789062 " clip-rule="nonzero"/></clipPath><linearGradient x1="268.67999" gradientTransform="matrix(3.816001, 0, 0, 3.816001, 98.634367, 23.876439)" y1="201.340883" x2="268.67999" gradientUnits="userSpaceOnUse" y2="97.748971" id="7e592b6b9d"><stop stop-opacity="1" stop-color="rgb(96.078491%, 70.199585%, 0.779724%)" offset="0"/><stop stop-opacity="1" stop-color="rgb(96.078491%, 70.100403%, 0.779724%)" offset="0.03125"/><stop stop-opacity="1" stop-color="rgb(96.078491%, 69.902039%, 0.779724%)" offset="0.0625"/><stop stop-opacity="1" stop-color="rgb(96.078491%, 69.801331%, 0.779724%)" offset="0.125"/><stop stop-opacity="1" stop-color="rgb(96.078491%, 69.606018%, 0.779724%)" offset="0.1875"/><stop stop-opacity="1" stop-color="rgb(95.982361%, 69.313049%, 0.779724%)" offset="0.21875"/><stop stop-opacity="1" stop-color="rgb(95.787048%, 69.116211%, 0.779724%)" offset="0.25"/><stop stop-opacity="1" stop-color="rgb(95.689392%, 68.823242%, 0.779724%)" offset="0.375"/><stop stop-opacity="1" stop-color="rgb(95.689392%, 68.435669%, 0.779724%)" offset="0.4375"/><stop stop-opacity="1" stop-color="rgb(95.59021%, 68.141174%, 0.779724%)" offset="0.46875"/><stop stop-opacity="1" stop-color="rgb(95.39032%, 67.939758%, 0.779724%)" offset="0.5"/><stop stop-opacity="1" stop-color="rgb(95.289612%, 67.643738%, 0.779724%)" offset="0.625"/><stop stop-opacity="1" stop-color="rgb(95.094299%, 67.254639%, 0.779724%)" offset="0.75"/><stop stop-opacity="1" stop-color="rgb(94.898987%, 66.96167%, 0.878906%)" offset="0.78125"/><stop stop-opacity="1" stop-color="rgb(94.898987%, 66.767883%, 1.077271%)" offset="0.8125"/><stop stop-opacity="1" stop-color="rgb(94.898987%, 66.571045%, 1.177979%)" offset="0.84375"/><stop stop-opacity="1" stop-color="rgb(94.898987%, 66.369629%, 1.179504%)" offset="0.875"/><stop stop-opacity="1" stop-color="rgb(94.703674%, 66.073608%, 1.179504%)" offset="1"/></linearGradient><clipPath id="d2a14b3652"><path d="M 1102.476562 166.285156 L 1288.808594 166.285156 L 1288.808594 352.78125 L 1102.476562 352.78125 Z M 1102.476562 166.285156 " clip-rule="nonzero"/></clipPath><clipPath id="fc5bfce13c"><path d="M 1157.269531 193.691406 C 1157.269531 178.539062 1145.015625 166.285156 1129.871094 166.285156 C 1114.722656 166.285156 1102.476562 178.539062 1102.476562 193.691406 C 1102.476562 208.835938 1114.722656 221.089844 1129.871094 221.089844 C 1133.957031 221.089844 1137.808594 220.167969 1141.277344 218.570312 L 1236.5625 313.855469 C 1234.925781 317.367188 1234.011719 321.257812 1234.011719 325.382812 C 1234.011719 340.527344 1246.257812 352.78125 1261.410156 352.78125 C 1276.554688 352.78125 1288.808594 340.527344 1288.808594 325.382812 C 1288.808594 310.230469 1276.554688 297.976562 1261.410156 297.976562 C 1257.285156 297.976562 1253.394531 298.898438 1249.882812 300.535156 L 1154.636719 205.292969 C 1156.277344 201.78125 1157.230469 197.847656 1157.230469 193.691406 Z M 1157.269531 193.691406 " clip-rule="nonzero"/></clipPath><linearGradient x1="287.47" gradientTransform="matrix(3.816001, 0, 0, 3.816001, 98.634367, 23.876439)" y1="86.190573" x2="287.47" gradientUnits="userSpaceOnUse" y2="37.319112" id="b2a7087c34"><stop stop-opacity="1" stop-color="rgb(94.119263%, 65.098572%, 1.179504%)" offset="0"/><stop stop-opacity="1" stop-color="rgb(94.119263%, 64.903259%, 1.179504%)" offset="0.25"/><stop stop-opacity="1" stop-color="rgb(94.119263%, 64.709473%, 1.179504%)" offset="0.375"/><stop stop-opacity="1" stop-color="rgb(94.119263%, 64.608765%, 1.179504%)" offset="0.4375"/><stop stop-opacity="1" stop-color="rgb(94.119263%, 64.408875%, 1.179504%)" offset="0.5"/><stop stop-opacity="1" stop-color="rgb(93.92395%, 64.11438%, 1.179504%)" offset="0.75"/><stop stop-opacity="1" stop-color="rgb(93.728638%, 63.723755%, 1.179504%)" offset="0.875"/><stop stop-opacity="1" stop-color="rgb(93.62793%, 63.430786%, 1.179504%)" offset="0.9375"/><stop stop-opacity="1" stop-color="rgb(93.42804%, 63.237%, 1.179504%)" offset="1"/></linearGradient><clipPath id="14cb8cd083"><path d="M 360.5625 193.117188 L 717.015625 193.117188 L 717.015625 346.710938 L 360.5625 346.710938 Z M 360.5625 193.117188 " clip-rule="nonzero"/></clipPath><clipPath id="5fe248b23a"><path d="M 717.015625 346.710938 L 717.015625 311.109375 L 599.023438 193.117188 L 445.585938 193.117188 L 401.359375 237.347656 C 397.386719 235.125 392.808594 233.835938 387.964844 233.835938 C 372.816406 233.835938 360.5625 246.082031 360.5625 261.230469 C 360.5625 276.382812 372.816406 288.628906 387.964844 288.628906 C 403.109375 288.628906 415.363281 276.382812 415.363281 261.230469 C 415.363281 257.875 414.710938 254.710938 413.644531 251.730469 L 453.410156 211.96875 L 591.242188 211.96875 L 698.167969 318.890625 L 698.167969 334.230469 Z M 717.015625 346.710938 " clip-rule="nonzero"/></clipPath><linearGradient x1="115.339996" gradientTransform="matrix(3.816001, 0, 0, 3.816001, 98.634367, 23.876439)" y1="84.599796" x2="115.339996" gradientUnits="userSpaceOnUse" y2="44.350612" id="4e8027fa61"><stop stop-opacity="1" stop-color="rgb(94.119263%, 65.098572%, 1.179504%)" offset="0"/><stop stop-opacity="1" stop-color="rgb(94.119263%, 64.903259%, 1.179504%)" offset="0.25"/><stop stop-opacity="1" stop-color="rgb(94.119263%, 64.709473%, 1.179504%)" offset="0.375"/><stop stop-opacity="1" stop-color="rgb(94.119263%, 64.608765%, 1.179504%)" offset="0.4375"/><stop stop-opacity="1" stop-color="rgb(94.119263%, 64.408875%, 1.179504%)" offset="0.5"/><stop stop-opacity="1" stop-color="rgb(93.92395%, 64.11438%, 1.179504%)" offset="0.75"/><stop stop-opacity="1" stop-color="rgb(93.728638%, 63.723755%, 1.179504%)" offset="1"/></linearGradient><clipPath id="f80f9d56c4"><path d="M 239.097656 297.945312 L 540.871094 297.945312 L 540.871094 671.683594 L 239.097656 671.683594 Z M 239.097656 297.945312 " clip-rule="nonzero"/></clipPath><clipPath id="fb27a22435"><path d="M 512.214844 316.792969 L 540.871094 305.347656 L 533.46875 297.945312 L 494.433594 297.945312 L 259.132812 533.234375 L 259.132812 617.914062 C 247.613281 621.160156 239.097656 631.691406 239.097656 644.285156 C 239.097656 659.429688 251.351562 671.683594 266.503906 671.683594 C 281.648438 671.683594 293.902344 659.429688 293.902344 644.285156 C 293.902344 633.25 287.371094 623.75 277.992188 619.4375 L 277.992188 541.058594 L 502.214844 316.832031 L 512.214844 316.832031 Z M 512.214844 316.792969 " clip-rule="nonzero"/></clipPath><linearGradient x1="76.360001" gradientTransform="matrix(3.816001, 0, 0, 3.816001, 98.634367, 23.876439)" y1="169.760493" x2="76.360001" gradientUnits="userSpaceOnUse" y2="71.820843" id="36e82a4dd8"><stop stop-opacity="1" stop-color="rgb(95.689392%, 68.629456%, 0.779724%)" offset="0"/><stop stop-opacity="1" stop-color="rgb(95.689392%, 68.434143%, 0.779724%)" offset="0.125"/><stop stop-opacity="1" stop-color="rgb(95.59021%, 68.238831%, 0.779724%)" offset="0.15625"/><stop stop-opacity="1" stop-color="rgb(95.391846%, 68.238831%, 0.779724%)" offset="0.1875"/><stop stop-opacity="1" stop-color="rgb(95.291138%, 68.139648%, 0.779724%)" offset="0.21875"/><stop stop-opacity="1" stop-color="rgb(95.289612%, 67.939758%, 0.779724%)" offset="0.25"/><stop stop-opacity="1" stop-color="rgb(95.289612%, 67.643738%, 0.779724%)" offset="0.375"/><stop stop-opacity="1" stop-color="rgb(95.095825%, 67.256165%, 0.779724%)" offset="0.4375"/><stop stop-opacity="1" stop-color="rgb(94.900513%, 66.963196%, 0.779724%)" offset="0.46875"/><stop stop-opacity="1" stop-color="rgb(94.898987%, 66.766357%, 0.779724%)" offset="0.5"/><stop stop-opacity="1" stop-color="rgb(94.898987%, 66.668701%, 0.878906%)" offset="0.53125"/><stop stop-opacity="1" stop-color="rgb(94.898987%, 66.668701%, 1.077271%)" offset="0.5625"/><stop stop-opacity="1" stop-color="rgb(94.898987%, 66.569519%, 1.177979%)" offset="0.59375"/><stop stop-opacity="1" stop-color="rgb(94.898987%, 66.369629%, 1.179504%)" offset="0.625"/><stop stop-opacity="1" stop-color="rgb(94.703674%, 66.073608%, 1.179504%)" offset="0.75"/><stop stop-opacity="1" stop-color="rgb(94.509888%, 65.686035%, 1.179504%)" offset="0.8125"/><stop stop-opacity="1" stop-color="rgb(94.509888%, 65.393066%, 1.179504%)" offset="0.84375"/><stop stop-opacity="1" stop-color="rgb(94.509888%, 65.196228%, 1.179504%)" offset="0.875"/><stop stop-opacity="1" stop-color="rgb(94.314575%, 64.903259%, 1.179504%)" offset="1"/></linearGradient><clipPath id="de4fffdc26"><path d="M 765.515625 107.980469 L 974.101562 107.980469 L 974.101562 215.398438 L 765.515625 215.398438 Z M 765.515625 107.980469 " clip-rule="nonzero"/></clipPath><clipPath id="27ab2fff47"><path d="M 792.953125 215.398438 C 808.105469 215.398438 820.359375 203.152344 820.359375 188 C 820.359375 183.882812 819.398438 179.992188 817.796875 176.480469 L 849.433594 144.804688 L 921.019531 144.804688 C 924.878906 155.300781 934.910156 162.773438 946.703125 162.773438 C 961.816406 162.773438 974.101562 150.527344 974.101562 135.378906 C 974.101562 120.234375 961.847656 107.980469 946.703125 107.980469 C 934.871094 107.980469 924.835938 115.464844 921.019531 125.957031 L 841.613281 125.957031 L 804.4375 163.121094 C 800.929688 161.484375 797.035156 160.5625 792.921875 160.5625 C 777.808594 160.5625 765.515625 172.816406 765.515625 187.96875 C 765.515625 203.113281 777.769531 215.367188 792.921875 215.367188 Z M 792.953125 215.398438 " clip-rule="nonzero"/></clipPath><linearGradient x1="202.10001" gradientTransform="matrix(3.816001, 0, 0, 3.816001, 98.634367, 23.876439)" y1="50.189033" x2="202.10001" gradientUnits="userSpaceOnUse" y2="22.039773" id="e7bf52ee1b"><stop stop-opacity="1" stop-color="rgb(93.728638%, 63.529968%, 1.179504%)" offset="0"/><stop stop-opacity="1" stop-color="rgb(93.728638%, 63.528442%, 1.179504%)" offset="0.25"/><stop stop-opacity="1" stop-color="rgb(93.62793%, 63.430786%, 1.179504%)" offset="0.375"/><stop stop-opacity="1" stop-color="rgb(93.42804%, 63.237%, 1.179504%)" offset="0.5"/><stop stop-opacity="1" stop-color="rgb(93.328857%, 62.944031%, 1.373291%)" offset="1"/></linearGradient><clipPath id="bc19e2ce5a"><path d="M 306.679688 246.007812 L 611.277344 246.007812 L 611.277344 433.710938 L 306.679688 433.710938 Z M 306.679688 246.007812 " clip-rule="nonzero"/></clipPath><clipPath id="f5f7fe9c6b"><path d="M 589.144531 295.457031 L 611.277344 290.921875 L 566.363281 246.007812 L 481.492188 246.007812 L 345.871094 381.628906 C 342.285156 379.910156 338.3125 378.917969 334.085938 378.917969 C 318.933594 378.917969 306.679688 391.164062 306.679688 406.316406 C 306.679688 421.464844 318.933594 433.710938 334.085938 433.710938 C 349.226562 433.710938 361.480469 421.464844 361.480469 406.316406 C 361.480469 402.3125 360.601562 398.535156 359.078125 395.09375 L 489.3125 264.855469 L 558.574219 264.855469 L 589.183594 295.457031 Z M 589.144531 295.457031 " clip-rule="nonzero"/></clipPath><linearGradient x1="94.43" gradientTransform="matrix(3.816001, 0, 0, 3.816001, 98.634367, 23.876439)" y1="107.399299" x2="94.43" gradientUnits="userSpaceOnUse" y2="58.210539" id="d18242c9fd"><stop stop-opacity="1" stop-color="rgb(94.509888%, 65.879822%, 1.179504%)" offset="0"/><stop stop-opacity="1" stop-color="rgb(94.509888%, 65.684509%, 1.179504%)" offset="0.25"/><stop stop-opacity="1" stop-color="rgb(94.314575%, 65.293884%, 1.179504%)" offset="0.5"/><stop stop-opacity="1" stop-color="rgb(94.119263%, 64.903259%, 1.179504%)" offset="0.75"/><stop stop-opacity="1" stop-color="rgb(94.119263%, 64.608765%, 1.179504%)" offset="0.8125"/><stop stop-opacity="1" stop-color="rgb(94.119263%, 64.408875%, 1.179504%)" offset="0.875"/><stop stop-opacity="1" stop-color="rgb(93.92395%, 64.11438%, 1.179504%)" offset="1"/></linearGradient><clipPath id="c11c901f7e"><path d="M 783.574219 193.117188 L 1140.019531 193.117188 L 1140.019531 343.65625 L 783.574219 343.65625 Z M 783.574219 193.117188 " clip-rule="nonzero"/></clipPath><clipPath id="4643010111"><path d="M 1112.621094 288.628906 C 1127.773438 288.628906 1140.019531 276.382812 1140.019531 261.230469 C 1140.019531 246.082031 1127.773438 233.835938 1112.621094 233.835938 C 1107.738281 233.835938 1103.195312 235.125 1099.230469 237.347656 L 1055.003906 193.117188 L 901.558594 193.117188 L 783.574219 311.109375 L 783.574219 343.65625 L 802.421875 330.265625 L 802.421875 318.933594 L 909.347656 212.007812 L 1047.179688 212.007812 L 1086.945312 251.769531 C 1085.832031 254.742188 1085.226562 257.914062 1085.226562 261.273438 C 1085.226562 276.417969 1097.46875 288.667969 1112.621094 288.667969 Z M 1112.621094 288.628906 " clip-rule="nonzero"/></clipPath><linearGradient x1="226.19" gradientTransform="matrix(3.816001, 0, 0, 3.816001, 98.634367, 23.876439)" y1="83.800203" x2="226.19" gradientUnits="userSpaceOnUse" y2="44.350612" id="318a9d0ad9"><stop stop-opacity="1" stop-color="rgb(94.119263%, 65.098572%, 1.179504%)" offset="0"/><stop stop-opacity="1" stop-color="rgb(94.119263%, 64.903259%, 1.179504%)" offset="0.25"/><stop stop-opacity="1" stop-color="rgb(94.119263%, 64.709473%, 1.179504%)" offset="0.375"/><stop stop-opacity="1" stop-color="rgb(94.119263%, 64.608765%, 1.179504%)" offset="0.4375"/><stop stop-opacity="1" stop-color="rgb(94.119263%, 64.408875%, 1.179504%)" offset="0.5"/><stop stop-opacity="1" stop-color="rgb(93.92395%, 64.11438%, 1.179504%)" offset="0.75"/><stop stop-opacity="1" stop-color="rgb(93.728638%, 63.723755%, 1.179504%)" offset="1"/></linearGradient><clipPath id="25a519eb8a"><path d="M 292.335938 396.886719 L 460.925781 396.886719 L 460.925781 792.195312 L 292.335938 792.195312 Z M 292.335938 396.886719 " clip-rule="nonzero"/></clipPath><clipPath id="15848f7388"><path d="M 460.925781 396.886719 L 459.511719 396.886719 L 310.3125 546.09375 L 310.3125 739.109375 C 299.816406 742.960938 292.335938 753.003906 292.335938 764.789062 C 292.335938 779.941406 304.582031 792.195312 319.730469 792.195312 C 334.882812 792.195312 347.128906 779.941406 347.128906 764.789062 C 347.128906 752.960938 339.652344 742.929688 329.160156 739.109375 L 329.160156 553.917969 L 415.96875 467.105469 L 460.925781 396.925781 Z M 460.925781 396.886719 " clip-rule="nonzero"/></clipPath><linearGradient x1="72.849998" gradientTransform="matrix(3.816001, 0, 0, 3.816001, 98.634367, 23.876439)" y1="201.340883" x2="72.849998" gradientUnits="userSpaceOnUse" y2="97.748971" id="9486bd95f3"><stop stop-opacity="1" stop-color="rgb(96.078491%, 70.199585%, 0.779724%)" offset="0"/><stop stop-opacity="1" stop-color="rgb(96.078491%, 70.100403%, 0.779724%)" offset="0.03125"/><stop stop-opacity="1" stop-color="rgb(96.078491%, 69.902039%, 0.779724%)" offset="0.0625"/><stop stop-opacity="1" stop-color="rgb(96.078491%, 69.801331%, 0.779724%)" offset="0.125"/><stop stop-opacity="1" stop-color="rgb(96.078491%, 69.606018%, 0.779724%)" offset="0.1875"/><stop stop-opacity="1" stop-color="rgb(95.982361%, 69.313049%, 0.779724%)" offset="0.21875"/><stop stop-opacity="1" stop-color="rgb(95.787048%, 69.116211%, 0.779724%)" offset="0.25"/><stop stop-opacity="1" stop-color="rgb(95.689392%, 68.823242%, 0.779724%)" offset="0.375"/><stop stop-opacity="1" stop-color="rgb(95.689392%, 68.435669%, 0.779724%)" offset="0.4375"/><stop stop-opacity="1" stop-color="rgb(95.59021%, 68.141174%, 0.779724%)" offset="0.46875"/><stop stop-opacity="1" stop-color="rgb(95.39032%, 67.939758%, 0.779724%)" offset="0.5"/><stop stop-opacity="1" stop-color="rgb(95.289612%, 67.643738%, 0.779724%)" offset="0.625"/><stop stop-opacity="1" stop-color="rgb(95.094299%, 67.254639%, 0.779724%)" offset="0.75"/><stop stop-opacity="1" stop-color="rgb(94.898987%, 66.96167%, 0.878906%)" offset="0.78125"/><stop stop-opacity="1" stop-color="rgb(94.898987%, 66.767883%, 1.077271%)" offset="0.8125"/><stop stop-opacity="1" stop-color="rgb(94.898987%, 66.571045%, 1.177979%)" offset="0.84375"/><stop stop-opacity="1" stop-color="rgb(94.898987%, 66.369629%, 1.179504%)" offset="0.875"/><stop stop-opacity="1" stop-color="rgb(94.703674%, 66.073608%, 1.179504%)" offset="1"/></linearGradient><clipPath id="bae261ed1d"><path d="M 959.371094 297.90625 L 1261.410156 297.90625 L 1261.410156 671.640625 L 959.371094 671.640625 Z M 959.371094 297.90625 " clip-rule="nonzero"/></clipPath><clipPath id="88da6d059c"><path d="M 1206.609375 644.246094 C 1206.609375 659.398438 1218.859375 671.640625 1234.011719 671.640625 C 1249.15625 671.640625 1261.410156 659.398438 1261.410156 644.246094 C 1261.410156 631.691406 1252.933594 621.117188 1241.375 617.871094 L 1241.375 533.195312 L 1006.078125 297.90625 L 967.007812 297.90625 L 959.371094 305.5 L 988.261719 316.710938 L 998.222656 316.710938 L 1222.445312 540.945312 L 1222.445312 619.324219 C 1213.058594 623.675781 1206.535156 633.136719 1206.535156 644.164062 Z M 1206.609375 644.246094 " clip-rule="nonzero"/></clipPath><linearGradient x1="265.14001" gradientTransform="matrix(3.816001, 0, 0, 3.816001, 98.634367, 23.876439)" y1="169.749902" x2="265.14001" gradientUnits="userSpaceOnUse" y2="71.810272" id="b85ec16ded"><stop stop-opacity="1" stop-color="rgb(95.689392%, 68.629456%, 0.779724%)" offset="0"/><stop stop-opacity="1" stop-color="rgb(95.689392%, 68.434143%, 0.779724%)" offset="0.125"/><stop stop-opacity="1" stop-color="rgb(95.59021%, 68.238831%, 0.779724%)" offset="0.15625"/><stop stop-opacity="1" stop-color="rgb(95.391846%, 68.238831%, 0.779724%)" offset="0.1875"/><stop stop-opacity="1" stop-color="rgb(95.291138%, 68.139648%, 0.779724%)" offset="0.21875"/><stop stop-opacity="1" stop-color="rgb(95.289612%, 67.939758%, 0.779724%)" offset="0.25"/><stop stop-opacity="1" stop-color="rgb(95.289612%, 67.643738%, 0.779724%)" offset="0.375"/><stop stop-opacity="1" stop-color="rgb(95.095825%, 67.256165%, 0.779724%)" offset="0.4375"/><stop stop-opacity="1" stop-color="rgb(94.900513%, 66.963196%, 0.779724%)" offset="0.46875"/><stop stop-opacity="1" stop-color="rgb(94.898987%, 66.766357%, 0.779724%)" offset="0.5"/><stop stop-opacity="1" stop-color="rgb(94.898987%, 66.668701%, 0.878906%)" offset="0.53125"/><stop stop-opacity="1" stop-color="rgb(94.898987%, 66.668701%, 1.077271%)" offset="0.5625"/><stop stop-opacity="1" stop-color="rgb(94.898987%, 66.569519%, 1.177979%)" offset="0.59375"/><stop stop-opacity="1" stop-color="rgb(94.898987%, 66.369629%, 1.179504%)" offset="0.625"/><stop stop-opacity="1" stop-color="rgb(94.703674%, 66.073608%, 1.179504%)" offset="0.75"/><stop stop-opacity="1" stop-color="rgb(94.509888%, 65.686035%, 1.179504%)" offset="0.8125"/><stop stop-opacity="1" stop-color="rgb(94.509888%, 65.393066%, 1.179504%)" offset="0.84375"/><stop stop-opacity="1" stop-color="rgb(94.509888%, 65.196228%, 1.179504%)" offset="0.875"/><stop stop-opacity="1" stop-color="rgb(94.314575%, 64.903259%, 1.179504%)" offset="1"/></linearGradient><clipPath id="30dfd64fd3"><path d="M 322.976562 721.898438 L 395.289062 721.898438 L 395.289062 890.910156 L 322.976562 890.910156 Z M 322.976562 721.898438 " clip-rule="nonzero"/></clipPath><clipPath id="28f84c9ed8"><path d="M 395.289062 741.855469 L 376.441406 721.898438 L 376.441406 822.222656 L 360.5625 838.101562 C 357.398438 836.832031 354 836.113281 350.375 836.113281 C 335.222656 836.113281 322.976562 848.359375 322.976562 863.511719 C 322.976562 878.664062 335.222656 890.910156 350.375 890.910156 C 365.527344 890.910156 377.773438 878.664062 377.773438 863.511719 C 377.773438 858.894531 376.632812 854.542969 374.605469 850.691406 L 395.289062 830.003906 Z M 395.289062 741.855469 " clip-rule="nonzero"/></clipPath><linearGradient x1="68.260002" gradientTransform="matrix(3.816001, 0, 0, 3.816001, 98.634367, 23.876439)" y1="227.209793" x2="68.260002" gradientUnits="userSpaceOnUse" y2="182.920228" id="aa0d54c375"><stop stop-opacity="1" stop-color="rgb(96.859741%, 71.369934%, 0.389099%)" offset="0"/><stop stop-opacity="1" stop-color="rgb(96.664429%, 71.174622%, 0.389099%)" offset="0.25"/><stop stop-opacity="1" stop-color="rgb(96.469116%, 70.783997%, 0.389099%)" offset="0.375"/><stop stop-opacity="1" stop-color="rgb(96.469116%, 70.393372%, 0.584412%)" offset="0.5"/><stop stop-opacity="1" stop-color="rgb(96.469116%, 70.199585%, 0.779724%)" offset="0.625"/><stop stop-opacity="1" stop-color="rgb(96.37146%, 70.098877%, 0.779724%)" offset="0.6875"/><stop stop-opacity="1" stop-color="rgb(96.176147%, 69.898987%, 0.779724%)" offset="0.75"/><stop stop-opacity="1" stop-color="rgb(96.078491%, 69.604492%, 0.779724%)" offset="1"/></linearGradient><clipPath id="7be44819af"><path d="M 1153.53125 306.640625 L 1309.796875 306.640625 L 1309.796875 501.179688 L 1153.53125 501.179688 Z M 1153.53125 306.640625 " clip-rule="nonzero"/></clipPath><clipPath id="02ad1fba3b"><path d="M 1205.769531 345.5625 C 1207.414062 342.050781 1208.328125 338.160156 1208.328125 334.042969 C 1208.328125 318.890625 1196.082031 306.640625 1180.929688 306.640625 C 1165.777344 306.640625 1153.53125 318.890625 1153.53125 334.042969 C 1153.53125 349.1875 1165.777344 361.441406 1180.929688 361.441406 C 1185.046875 361.441406 1188.945312 360.519531 1192.457031 358.882812 L 1272.96875 439.402344 L 1272.96875 448.105469 C 1262.476562 451.957031 1255 461.988281 1255 473.78125 C 1255 488.933594 1267.246094 501.179688 1282.398438 501.179688 C 1297.542969 501.179688 1309.796875 488.933594 1309.796875 473.78125 C 1309.796875 461.957031 1302.3125 451.914062 1291.820312 448.105469 L 1291.820312 431.613281 Z M 1205.769531 345.5625 " clip-rule="nonzero"/></clipPath><linearGradient x1="296.91" gradientTransform="matrix(3.816001, 0, 0, 3.816001, 98.634367, 23.876439)" y1="125.079587" x2="296.91" gradientUnits="userSpaceOnUse" y2="74.099112" id="9c5ffd6145"><stop stop-opacity="1" stop-color="rgb(94.898987%, 66.668701%, 0.779724%)" offset="0"/><stop stop-opacity="1" stop-color="rgb(94.898987%, 66.668701%, 0.779724%)" offset="0.125"/><stop stop-opacity="1" stop-color="rgb(94.898987%, 66.567993%, 0.878906%)" offset="0.1875"/><stop stop-opacity="1" stop-color="rgb(94.898987%, 66.368103%, 1.078796%)" offset="0.25"/><stop stop-opacity="1" stop-color="rgb(94.703674%, 66.073608%, 1.179504%)" offset="0.5"/><stop stop-opacity="1" stop-color="rgb(94.509888%, 65.684509%, 1.179504%)" offset="0.75"/><stop stop-opacity="1" stop-color="rgb(94.314575%, 65.293884%, 1.179504%)" offset="0.875"/><stop stop-opacity="1" stop-color="rgb(94.119263%, 64.903259%, 1.179504%)" offset="1"/></linearGradient><clipPath id="d706730eb3"><path d="M 934.378906 1008.023438 L 999.933594 1008.023438 L 999.933594 1189.511719 L 934.378906 1189.511719 Z M 934.378906 1008.023438 " clip-rule="nonzero"/></clipPath><clipPath id="7f04a6063d"><path d="M 999.933594 1008.023438 L 981.085938 1027.75 L 981.085938 1129.597656 L 973.375 1137.308594 C 969.863281 1135.667969 965.933594 1134.714844 961.777344 1134.714844 C 946.625 1134.714844 934.378906 1146.960938 934.378906 1162.113281 C 934.378906 1177.265625 946.625 1189.511719 961.777344 1189.511719 C 976.925781 1189.511719 989.171875 1177.265625 989.171875 1162.113281 C 989.171875 1158.027344 988.261719 1154.179688 986.65625 1150.707031 L 999.933594 1137.421875 Z M 999.933594 1008.023438 " clip-rule="nonzero"/></clipPath><linearGradient x1="227.60001" gradientTransform="matrix(3.816001, 0, 0, 3.816001, 98.634367, 23.876439)" y1="305.459538" x2="227.60001" gradientUnits="userSpaceOnUse" y2="257.89962" id="86f7a9a27b"><stop stop-opacity="1" stop-color="rgb(98.039246%, 74.508667%, 0%)" offset="0"/><stop stop-opacity="1" stop-color="rgb(98.039246%, 74.313354%, 0.193787%)" offset="0.25"/><stop stop-opacity="1" stop-color="rgb(97.843933%, 73.924255%, 0.389099%)" offset="0.5"/><stop stop-opacity="1" stop-color="rgb(97.648621%, 73.628235%, 0.389099%)" offset="0.5625"/><stop stop-opacity="1" stop-color="rgb(97.648621%, 73.428345%, 0.389099%)" offset="0.625"/><stop stop-opacity="1" stop-color="rgb(97.648621%, 73.13385%, 0.389099%)" offset="0.75"/><stop stop-opacity="1" stop-color="rgb(97.547913%, 72.938538%, 0.389099%)" offset="0.8125"/><stop stop-opacity="1" stop-color="rgb(97.348022%, 72.938538%, 0.389099%)" offset="0.875"/><stop stop-opacity="1" stop-color="rgb(97.24884%, 72.743225%, 0.389099%)" offset="1"/></linearGradient><clipPath id="e8173f4953"><path d="M 1105.261719 721.898438 L 1177.570312 721.898438 L 1177.570312 890.910156 L 1105.261719 890.910156 Z M 1105.261719 721.898438 " clip-rule="nonzero"/></clipPath><clipPath id="50bc5470fc"><path d="M 1150.175781 890.910156 C 1165.316406 890.910156 1177.570312 878.664062 1177.570312 863.511719 C 1177.570312 848.359375 1165.316406 836.113281 1150.175781 836.113281 C 1146.582031 836.113281 1143.152344 836.839844 1139.980469 838.101562 L 1124.109375 822.222656 L 1124.109375 721.898438 L 1105.261719 741.855469 L 1105.261719 830.003906 L 1125.941406 850.691406 C 1123.914062 854.503906 1122.769531 858.855469 1122.769531 863.511719 C 1122.769531 878.664062 1135.023438 890.910156 1150.175781 890.910156 Z M 1150.175781 890.910156 " clip-rule="nonzero"/></clipPath><linearGradient x1="273.26999" gradientTransform="matrix(3.816001, 0, 0, 3.816001, 98.634367, 23.876439)" y1="227.209793" x2="273.26999" gradientUnits="userSpaceOnUse" y2="182.920228" id="ac07b99e72"><stop stop-opacity="1" stop-color="rgb(96.859741%, 71.369934%, 0.389099%)" offset="0"/><stop stop-opacity="1" stop-color="rgb(96.664429%, 71.174622%, 0.389099%)" offset="0.25"/><stop stop-opacity="1" stop-color="rgb(96.469116%, 70.783997%, 0.389099%)" offset="0.375"/><stop stop-opacity="1" stop-color="rgb(96.469116%, 70.393372%, 0.584412%)" offset="0.5"/><stop stop-opacity="1" stop-color="rgb(96.469116%, 70.199585%, 0.779724%)" offset="0.625"/><stop stop-opacity="1" stop-color="rgb(96.37146%, 70.098877%, 0.779724%)" offset="0.6875"/><stop stop-opacity="1" stop-color="rgb(96.176147%, 69.898987%, 0.779724%)" offset="0.75"/><stop stop-opacity="1" stop-color="rgb(96.078491%, 69.604492%, 0.779724%)" offset="1"/></linearGradient><clipPath id="605fb16a57"><path d="M 840.351562 534.113281 L 959.449219 534.113281 L 959.449219 593 L 840.351562 593 Z M 840.351562 534.113281 " clip-rule="nonzero"/></clipPath><clipPath id="7d3f214da6"><path d="M 856.988281 581.621094 C 859.96875 586.964844 865.117188 590.742188 871.109375 592 C 877.097656 593.261719 883.320312 591.847656 888.207031 588.152344 L 959.449219 534.113281 L 840.351562 551.929688 Z M 856.988281 581.621094 " clip-rule="nonzero"/></clipPath><linearGradient x1="209.97" gradientTransform="matrix(3.816001, 0, 0, 3.816001, 98.634367, 23.876439)" y1="149.199071" x2="209.97" gradientUnits="userSpaceOnUse" y2="133.71031" id="2351dfd122"><stop stop-opacity="1" stop-color="rgb(95.289612%, 67.83905%, 0.779724%)" offset="0"/><stop stop-opacity="1" stop-color="rgb(95.289612%, 67.83905%, 0.779724%)" offset="0.5"/><stop stop-opacity="1" stop-color="rgb(95.289612%, 67.643738%, 0.779724%)" offset="1"/></linearGradient><clipPath id="38d6dcf921"><path d="M 541.097656 534.074219 L 660.195312 534.074219 L 660.195312 593 L 541.097656 593 Z M 541.097656 534.074219 " clip-rule="nonzero"/></clipPath><clipPath id="1c51301446"><path d="M 612.34375 588.109375 C 617.226562 591.816406 623.449219 593.21875 629.441406 591.960938 C 635.429688 590.703125 640.582031 586.925781 643.558594 581.621094 C 643.558594 581.621094 660.195312 551.898438 660.195312 551.898438 L 541.097656 534.074219 Z M 612.34375 588.109375 " clip-rule="nonzero"/></clipPath><linearGradient x1="131.559998" gradientTransform="matrix(3.816001, 0, 0, 3.816001, 98.634367, 23.876439)" y1="149.199069" x2="131.559998" gradientUnits="userSpaceOnUse" y2="133.699741" id="ddf1c66c56"><stop stop-opacity="1" stop-color="rgb(95.289612%, 67.83905%, 0.779724%)" offset="0"/><stop stop-opacity="1" stop-color="rgb(95.289612%, 67.83905%, 0.779724%)" offset="0.5"/><stop stop-opacity="1" stop-color="rgb(95.289612%, 67.643738%, 0.779724%)" offset="1"/></linearGradient><clipPath id="4f8b930eca"><path d="M 372.929688 317.972656 L 1127.691406 317.972656 L 1127.691406 1020.726562 L 372.929688 1020.726562 Z M 372.929688 317.972656 " clip-rule="nonzero"/></clipPath><clipPath id="dbfe8c199c"><path d="M 1127.660156 676.484375 L 1053.355469 574.605469 L 1078.007812 509.882812 L 966.660156 335.949219 L 869.082031 317.972656 L 749.796875 402.691406 L 621.730469 317.972656 L 533.960938 335.910156 L 422.574219 509.84375 L 447.226562 574.566406 L 372.929688 676.453125 L 490.992188 801.429688 L 466.378906 930.671875 L 547.085938 1015.199219 L 556.363281 1020.726562 L 729.34375 889.648438 L 743.308594 805.890625 L 667.445312 756.125 L 624.097656 710.945312 L 750.371094 756.09375 L 876.523438 710.945312 L 833.175781 756.125 L 757.3125 805.890625 L 771.277344 889.648438 L 944.257812 1020.726562 L 953.535156 1015.199219 L 1033.441406 931.511719 L 1009.628906 801.429688 L 1127.691406 676.453125 Z M 1012.875 925.410156 L 944.492188 997.035156 L 788.835938 879.082031 L 778.1875 815.085938 L 845.460938 770.972656 L 946.777344 665.347656 L 750.289062 736.367188 L 553.804688 665.347656 L 654.398438 770.210938 L 655.160156 770.972656 L 722.433594 815.085938 L 711.785156 879.082031 L 556.136719 997.035156 L 487.03125 924.644531 L 511.640625 795.429688 L 397.773438 674.886719 L 468.828125 577.464844 L 443.90625 512.054688 L 545.753906 353.003906 L 617.882812 338.273438 L 750.257812 425.859375 L 873.625 338.203125 L 955.101562 353.199219 L 1056.835938 512.054688 L 1031.914062 577.464844 L 1102.96875 674.886719 L 989.132812 795.359375 L 1012.945312 925.410156 Z M 1012.875 925.410156 " clip-rule="nonzero"/></clipPath><linearGradient x1="170.75999" gradientTransform="matrix(3.816001, 0, 0, 3.816001, 98.634367, 23.876439)" y1="261.229204" x2="170.75999" gradientUnits="userSpaceOnUse" y2="77.06909" id="b3202c763b"><stop stop-opacity="1" stop-color="rgb(97.24884%, 72.549438%, 0.389099%)" offset="0"/><stop stop-opacity="1" stop-color="rgb(97.24884%, 72.357178%, 0.389099%)" offset="0.0625"/><stop stop-opacity="1" stop-color="rgb(97.055054%, 72.161865%, 0.389099%)" offset="0.09375"/><stop stop-opacity="1" stop-color="rgb(96.861267%, 72.059631%, 0.389099%)" offset="0.109375"/><stop stop-opacity="1" stop-color="rgb(96.859741%, 71.859741%, 0.389099%)" offset="0.125"/><stop stop-opacity="1" stop-color="rgb(96.859741%, 71.563721%, 0.389099%)" offset="0.1875"/><stop stop-opacity="1" stop-color="rgb(96.664429%, 71.174622%, 0.389099%)" offset="0.25"/><stop stop-opacity="1" stop-color="rgb(96.469116%, 70.880127%, 0.486755%)" offset="0.265625"/><stop stop-opacity="1" stop-color="rgb(96.469116%, 70.683289%, 0.682068%)" offset="0.28125"/><stop stop-opacity="1" stop-color="rgb(96.469116%, 70.394897%, 0.779724%)" offset="0.3125"/><stop stop-opacity="1" stop-color="rgb(96.27533%, 70.202637%, 0.779724%)" offset="0.34375"/><stop stop-opacity="1" stop-color="rgb(96.080017%, 70.100403%, 0.779724%)" offset="0.359375"/><stop stop-opacity="1" stop-color="rgb(96.078491%, 69.900513%, 0.779724%)" offset="0.375"/><stop stop-opacity="1" stop-color="rgb(96.078491%, 69.604492%, 0.779724%)" offset="0.4375"/><stop stop-opacity="1" stop-color="rgb(95.883179%, 69.213867%, 0.779724%)" offset="0.5"/><stop stop-opacity="1" stop-color="rgb(95.689392%, 68.920898%, 0.779724%)" offset="0.515625"/><stop stop-opacity="1" stop-color="rgb(95.689392%, 68.72406%, 0.779724%)" offset="0.53125"/><stop stop-opacity="1" stop-color="rgb(95.689392%, 68.435669%, 0.779724%)" offset="0.5625"/><stop stop-opacity="1" stop-color="rgb(95.591736%, 68.241882%, 0.779724%)" offset="0.578125"/><stop stop-opacity="1" stop-color="rgb(95.393372%, 68.238831%, 0.779724%)" offset="0.59375"/><stop stop-opacity="1" stop-color="rgb(95.291138%, 68.139648%, 0.779724%)" offset="0.609375"/><stop stop-opacity="1" stop-color="rgb(95.289612%, 67.939758%, 0.779724%)" offset="0.625"/><stop stop-opacity="1" stop-color="rgb(95.289612%, 67.643738%, 0.779724%)" offset="0.6875"/><stop stop-opacity="1" stop-color="rgb(95.094299%, 67.254639%, 0.779724%)" offset="0.75"/><stop stop-opacity="1" stop-color="rgb(94.898987%, 66.960144%, 0.880432%)" offset="0.765625"/><stop stop-opacity="1" stop-color="rgb(94.898987%, 66.763306%, 1.080322%)" offset="0.78125"/><stop stop-opacity="1" stop-color="rgb(94.898987%, 66.470337%, 1.179504%)" offset="0.8125"/><stop stop-opacity="1" stop-color="rgb(94.7052%, 66.271973%, 1.179504%)" offset="0.84375"/><stop stop-opacity="1" stop-color="rgb(94.511414%, 66.073608%, 1.179504%)" offset="0.875"/><stop stop-opacity="1" stop-color="rgb(94.509888%, 65.684509%, 1.179504%)" offset="0.9375"/><stop stop-opacity="1" stop-color="rgb(94.314575%, 65.293884%, 1.179504%)" offset="1"/></linearGradient><clipPath id="091b81615e"><path d="M 500.617188 1008.023438 L 566.171875 1008.023438 L 566.171875 1189.511719 L 500.617188 1189.511719 Z M 500.617188 1008.023438 " clip-rule="nonzero"/></clipPath><clipPath id="857ab14bcd"><path d="M 500.617188 1008.023438 L 500.617188 1137.421875 L 513.894531 1150.707031 C 512.289062 1154.179688 511.375 1158.027344 511.375 1162.113281 C 511.375 1177.265625 523.621094 1189.511719 538.773438 1189.511719 C 553.925781 1189.511719 566.171875 1177.265625 566.171875 1162.113281 C 566.171875 1146.960938 553.925781 1134.714844 538.773438 1134.714844 C 534.617188 1134.714844 530.683594 1135.667969 527.171875 1137.308594 L 519.464844 1129.597656 L 519.464844 1027.75 Z M 500.617188 1008.023438 " clip-rule="nonzero"/></clipPath><linearGradient x1="113.93" gradientTransform="matrix(3.816001, 0, 0, 3.816001, 98.634367, 23.876439)" y1="305.459538" x2="113.93" gradientUnits="userSpaceOnUse" y2="257.89962" id="c0baa070fa"><stop stop-opacity="1" stop-color="rgb(98.039246%, 74.508667%, 0%)" offset="0"/><stop stop-opacity="1" stop-color="rgb(98.039246%, 74.313354%, 0.193787%)" offset="0.25"/><stop stop-opacity="1" stop-color="rgb(97.843933%, 73.924255%, 0.389099%)" offset="0.5"/><stop stop-opacity="1" stop-color="rgb(97.648621%, 73.628235%, 0.389099%)" offset="0.5625"/><stop stop-opacity="1" stop-color="rgb(97.648621%, 73.428345%, 0.389099%)" offset="0.625"/><stop stop-opacity="1" stop-color="rgb(97.648621%, 73.13385%, 0.389099%)" offset="0.75"/><stop stop-opacity="1" stop-color="rgb(97.547913%, 72.938538%, 0.389099%)" offset="0.8125"/><stop stop-opacity="1" stop-color="rgb(97.348022%, 72.938538%, 0.389099%)" offset="0.875"/><stop stop-opacity="1" stop-color="rgb(97.24884%, 72.743225%, 0.389099%)" offset="1"/></linearGradient><clipPath id="65ff26fbb2"><path d="M 573.953125 928.195312 L 926.628906 928.195312 L 926.628906 1191.875 L 573.953125 1191.875 Z M 573.953125 928.195312 " clip-rule="nonzero"/></clipPath><clipPath id="31671585f7"><path d="M 848.902344 1148.722656 L 926.628906 1026.605469 L 760.363281 933.804688 L 750.289062 928.195312 L 740.214844 933.804688 L 573.953125 1026.605469 L 651.6875 1148.722656 L 669.808594 1116.433594 L 750.289062 1191.875 L 830.769531 1116.433594 Z M 665.046875 1085.871094 L 650.621094 1111.589844 L 600.855469 1033.441406 L 750.257812 950.054688 L 899.652344 1033.441406 L 849.894531 1111.589844 L 835.46875 1085.871094 L 750.257812 1165.695312 Z M 665.046875 1085.871094 " clip-rule="nonzero"/></clipPath><linearGradient x1="170.75999" gradientTransform="matrix(3.816001, 0, 0, 3.816001, 98.634367, 23.876439)" y1="306.079354" x2="170.75999" gradientUnits="userSpaceOnUse" y2="236.980705" id="3206ad9568"><stop stop-opacity="1" stop-color="rgb(98.039246%, 74.508667%, 0%)" offset="0"/><stop stop-opacity="1" stop-color="rgb(97.843933%, 74.313354%, 0.193787%)" offset="0.25"/><stop stop-opacity="1" stop-color="rgb(97.648621%, 73.924255%, 0.389099%)" offset="0.375"/><stop stop-opacity="1" stop-color="rgb(97.648621%, 73.628235%, 0.389099%)" offset="0.4375"/><stop stop-opacity="1" stop-color="rgb(97.648621%, 73.428345%, 0.389099%)" offset="0.5"/><stop stop-opacity="1" stop-color="rgb(97.547913%, 73.231506%, 0.389099%)" offset="0.5625"/><stop stop-opacity="1" stop-color="rgb(97.348022%, 73.036194%, 0.389099%)" offset="0.625"/><stop stop-opacity="1" stop-color="rgb(97.24884%, 72.743225%, 0.389099%)" offset="0.75"/><stop stop-opacity="1" stop-color="rgb(97.24884%, 72.354126%, 0.389099%)" offset="0.875"/><stop stop-opacity="1" stop-color="rgb(97.151184%, 72.058105%, 0.389099%)" offset="0.9375"/><stop stop-opacity="1" stop-color="rgb(96.955872%, 71.858215%, 0.389099%)" offset="1"/></linearGradient><clipPath id="1887a05e80"><path d="M 896.828125 23.875 L 1233.707031 23.875 L 1233.707031 192.199219 L 896.828125 192.199219 Z M 896.828125 23.875 " clip-rule="nonzero"/></clipPath><clipPath id="51b202563d"><path d="M 924.222656 78.679688 C 936.058594 78.679688 946.089844 71.195312 949.910156 60.699219 L 1088.890625 60.699219 L 1181.460938 153.273438 C 1179.824219 156.785156 1178.902344 160.675781 1178.902344 164.800781 C 1178.902344 179.953125 1191.15625 192.199219 1206.308594 192.199219 C 1221.453125 192.199219 1233.707031 179.953125 1233.707031 164.800781 C 1233.707031 149.648438 1221.453125 137.402344 1206.308594 137.402344 C 1202.183594 137.402344 1198.292969 138.316406 1194.78125 139.960938 L 1096.671875 41.851562 L 949.910156 41.851562 C 946.050781 31.359375 936.015625 23.875 924.222656 23.875 C 909.078125 23.875 896.828125 36.128906 896.828125 51.273438 C 896.828125 66.425781 909.078125 78.679688 924.222656 78.679688 Z M 924.222656 78.679688 " clip-rule="nonzero"/></clipPath><linearGradient x1="253.31" gradientTransform="matrix(3.816001, 0, 0, 3.816001, 98.634367, 23.876439)" y1="44.109443" x2="253.31" gradientUnits="userSpaceOnUse" y2="-0.000297757" id="2b03648dbf"><stop stop-opacity="1" stop-color="rgb(93.728638%, 63.528442%, 1.179504%)" offset="0"/><stop stop-opacity="1" stop-color="rgb(93.728638%, 63.33313%, 1.179504%)" offset="0.125"/><stop stop-opacity="1" stop-color="rgb(93.62793%, 63.139343%, 1.179504%)" offset="0.1875"/><stop stop-opacity="1" stop-color="rgb(93.42804%, 63.139343%, 1.179504%)" offset="0.25"/><stop stop-opacity="1" stop-color="rgb(93.328857%, 62.944031%, 1.373291%)" offset="0.5"/><stop stop-opacity="1" stop-color="rgb(93.328857%, 62.64801%, 1.568604%)" offset="0.5625"/><stop stop-opacity="1" stop-color="rgb(93.328857%, 62.44812%, 1.568604%)" offset="0.625"/><stop stop-opacity="1" stop-color="rgb(93.133545%, 62.153625%, 1.568604%)" offset="0.75"/><stop stop-opacity="1" stop-color="rgb(92.939758%, 61.764526%, 1.568604%)" offset="1"/></linearGradient><clipPath id="f56556013d"><path d="M 800.054688 1139.980469 L 939.179688 1139.980469 L 939.179688 1476.109375 L 800.054688 1476.109375 Z M 800.054688 1139.980469 " clip-rule="nonzero"/></clipPath><clipPath id="cd84bced79"><path d="M 921.171875 1423.582031 L 921.171875 1330.589844 L 826.6875 1236.101562 L 871.335938 1191.496094 C 875.226562 1193.59375 879.65625 1194.78125 884.386719 1194.78125 C 899.539062 1194.78125 911.785156 1182.527344 911.785156 1167.375 C 911.785156 1152.234375 899.539062 1139.980469 884.386719 1139.980469 C 869.234375 1139.980469 856.988281 1152.234375 856.988281 1167.375 C 856.988281 1170.886719 857.675781 1174.214844 858.855469 1177.296875 L 800.054688 1236.101562 L 902.363281 1338.410156 L 902.363281 1423.621094 C 891.871094 1427.480469 884.386719 1437.515625 884.386719 1449.308594 C 884.386719 1464.453125 896.632812 1476.707031 911.785156 1476.707031 C 926.9375 1476.707031 939.179688 1464.453125 939.179688 1449.308594 C 939.179688 1437.472656 931.707031 1427.441406 921.210938 1423.621094 Z M 921.171875 1423.582031 " clip-rule="nonzero"/></clipPath><linearGradient x1="202.03999" gradientTransform="matrix(3.816001, 0, 0, 3.816001, 98.634367, 23.876439)" y1="380.56374" x2="202.03999" gradientUnits="userSpaceOnUse" y2="292.479622" id="a3e55dce0a"><stop stop-opacity="1" stop-color="rgb(98.81897%, 76.469421%, 0%)" offset="0"/><stop stop-opacity="1" stop-color="rgb(98.623657%, 76.274109%, 0%)" offset="0.5"/><stop stop-opacity="1" stop-color="rgb(98.429871%, 75.88501%, 0%)" offset="0.5625"/><stop stop-opacity="1" stop-color="rgb(98.429871%, 75.592041%, 0%)" offset="0.59375"/><stop stop-opacity="1" stop-color="rgb(98.429871%, 75.390625%, 0%)" offset="0.625"/><stop stop-opacity="1" stop-color="rgb(98.429871%, 75.094604%, 0%)" offset="0.75"/><stop stop-opacity="1" stop-color="rgb(98.234558%, 74.703979%, 0%)" offset="0.875"/><stop stop-opacity="1" stop-color="rgb(98.039246%, 74.313354%, 0.193787%)" offset="1"/></linearGradient><clipPath id="04d097a894"><path d="M 526.375 108.019531 L 734.953125 108.019531 L 734.953125 215.4375 L 526.375 215.4375 Z M 526.375 108.019531 " clip-rule="nonzero"/></clipPath><clipPath id="18fc8fc1d9"><path d="M 553.769531 108.019531 C 538.621094 108.019531 526.375 120.265625 526.375 135.417969 C 526.375 150.570312 538.621094 162.816406 553.769531 162.816406 C 565.597656 162.816406 575.628906 155.339844 579.449219 144.847656 L 651.042969 144.847656 L 682.710938 176.515625 C 681.070312 180.023438 680.160156 183.917969 680.160156 188.042969 C 680.160156 203.191406 692.402344 215.4375 707.554688 215.4375 C 722.699219 215.4375 734.953125 203.191406 734.953125 188.042969 C 734.953125 172.890625 722.699219 160.644531 707.554688 160.644531 C 703.429688 160.644531 699.539062 161.554688 696.027344 163.195312 L 658.863281 126.03125 L 579.449219 126.03125 C 575.597656 115.535156 565.558594 108.0625 553.769531 108.0625 Z M 553.769531 108.019531 " clip-rule="nonzero"/></clipPath><linearGradient x1="139.429993" gradientTransform="matrix(3.816001, 0, 0, 3.816001, 98.634367, 23.876439)" y1="50.199617" x2="139.429993" gradientUnits="userSpaceOnUse" y2="22.050349" id="e8f869ceb8"><stop stop-opacity="1" stop-color="rgb(93.728638%, 63.529968%, 1.179504%)" offset="0"/><stop stop-opacity="1" stop-color="rgb(93.728638%, 63.529968%, 1.179504%)" offset="0.25"/><stop stop-opacity="1" stop-color="rgb(93.62793%, 63.432312%, 1.179504%)" offset="0.375"/><stop stop-opacity="1" stop-color="rgb(93.42804%, 63.237%, 1.179504%)" offset="0.5"/><stop stop-opacity="1" stop-color="rgb(93.328857%, 62.944031%, 1.373291%)" offset="1"/></linearGradient><clipPath id="dc5f5572cb"><path d="M 898.964844 1200.3125 L 1031.570312 1200.3125 L 1031.570312 1380.316406 L 898.964844 1380.316406 Z M 898.964844 1200.3125 " clip-rule="nonzero"/></clipPath><clipPath id="892b0b8942"><path d="M 1013.601562 1327.230469 L 1013.601562 1302.539062 L 950.902344 1239.839844 C 952.734375 1236.183594 953.761719 1232.058594 953.761719 1227.707031 C 953.761719 1212.558594 941.515625 1200.3125 926.363281 1200.3125 C 911.210938 1200.3125 898.964844 1212.558594 898.964844 1227.707031 C 898.964844 1242.859375 911.210938 1255.105469 926.363281 1255.105469 C 930.253906 1255.105469 933.917969 1254.304688 937.234375 1252.863281 L 994.742188 1310.367188 L 994.742188 1327.230469 C 984.25 1331.082031 976.773438 1341.125 976.773438 1352.917969 C 976.773438 1368.0625 989.019531 1380.316406 1004.171875 1380.316406 C 1019.324219 1380.316406 1031.570312 1368.0625 1031.570312 1352.917969 C 1031.570312 1341.082031 1024.09375 1331.050781 1013.601562 1327.230469 Z M 1013.601562 1327.230469 " clip-rule="nonzero"/></clipPath><linearGradient x1="227.11" gradientTransform="matrix(3.816001, 0, 0, 3.816001, 98.634367, 23.876439)" y1="355.460619" x2="227.11" gradientUnits="userSpaceOnUse" y2="308.289918" id="c8496edbdd"><stop stop-opacity="1" stop-color="rgb(98.81897%, 76.469421%, 0%)" offset="0"/><stop stop-opacity="1" stop-color="rgb(98.81897%, 76.469421%, 0%)" offset="0.25"/><stop stop-opacity="1" stop-color="rgb(98.81897%, 76.274109%, 0%)" offset="0.375"/><stop stop-opacity="1" stop-color="rgb(98.623657%, 75.883484%, 0%)" offset="0.5"/><stop stop-opacity="1" stop-color="rgb(98.429871%, 75.689697%, 0%)" offset="0.625"/><stop stop-opacity="1" stop-color="rgb(98.429871%, 75.588989%, 0%)" offset="0.6875"/><stop stop-opacity="1" stop-color="rgb(98.429871%, 75.389099%, 0%)" offset="0.75"/><stop stop-opacity="1" stop-color="rgb(98.234558%, 75.094604%, 0%)" offset="1"/></linearGradient><clipPath id="5c850413bf"><path d="M 760.332031 1287.28125 L 867.667969 1287.28125 L 867.667969 1428.617188 L 760.332031 1428.617188 Z M 760.332031 1287.28125 " clip-rule="nonzero"/></clipPath><clipPath id="07bee0a143"><path d="M 849.660156 1375.503906 L 849.660156 1361.5 L 813.101562 1324.9375 C 814.398438 1321.773438 815.125 1318.304688 815.125 1314.679688 C 815.125 1299.527344 802.882812 1287.28125 787.730469 1287.28125 C 772.578125 1287.28125 760.332031 1299.527344 760.332031 1314.679688 C 760.332031 1329.824219 772.578125 1342.078125 787.730469 1342.078125 C 792.347656 1342.078125 796.65625 1340.929688 800.476562 1338.945312 L 830.851562 1369.320312 L 830.851562 1375.542969 C 820.359375 1379.394531 812.875 1389.4375 812.875 1401.222656 C 812.875 1416.375 825.128906 1428.617188 840.273438 1428.617188 C 855.421875 1428.617188 867.667969 1416.375 867.667969 1401.222656 C 867.667969 1389.394531 860.195312 1379.355469 849.699219 1375.542969 Z M 849.660156 1375.503906 " clip-rule="nonzero"/></clipPath><linearGradient x1="187.46001" gradientTransform="matrix(3.816001, 0, 0, 3.816001, 98.634367, 23.876439)" y1="368.11901" x2="187.46001" gradientUnits="userSpaceOnUse" y2="331.080968" id="3b6233d312"><stop stop-opacity="1" stop-color="rgb(98.81897%, 76.469421%, 0%)" offset="0"/><stop stop-opacity="1" stop-color="rgb(98.81897%, 76.469421%, 0%)" offset="0.5"/><stop stop-opacity="1" stop-color="rgb(98.81897%, 76.274109%, 0%)" offset="0.75"/><stop stop-opacity="1" stop-color="rgb(98.623657%, 75.883484%, 0%)" offset="1"/></linearGradient><clipPath id="20a4c3491e"><path d="M 561.441406 1139.9375 L 700.53125 1139.9375 L 700.53125 1476.109375 L 561.441406 1476.109375 Z M 561.441406 1139.9375 " clip-rule="nonzero"/></clipPath><clipPath id="f6b7d5653e"><path d="M 598.226562 1423.582031 L 598.226562 1338.371094 L 700.53125 1236.0625 L 641.726562 1177.265625 C 642.914062 1174.171875 643.597656 1170.855469 643.597656 1167.34375 C 643.597656 1152.191406 631.34375 1139.9375 616.203125 1139.9375 C 601.050781 1139.9375 588.796875 1152.191406 588.796875 1167.34375 C 588.796875 1182.488281 601.050781 1194.742188 616.203125 1194.742188 C 620.933594 1194.742188 625.355469 1193.554688 629.246094 1191.457031 L 673.894531 1236.0625 L 579.410156 1330.550781 L 579.410156 1423.550781 C 568.914062 1427.398438 561.441406 1437.433594 561.441406 1449.226562 C 561.441406 1464.378906 573.683594 1476.625 588.835938 1476.625 C 603.988281 1476.625 616.234375 1464.378906 616.234375 1449.226562 C 616.234375 1437.402344 608.757812 1427.359375 598.265625 1423.550781 Z M 598.226562 1423.582031 " clip-rule="nonzero"/></clipPath><linearGradient x1="139.490005" gradientTransform="matrix(3.816001, 0, 0, 3.816001, 98.634367, 23.876439)" y1="380.56374" x2="139.490005" gradientUnits="userSpaceOnUse" y2="292.469053" id="7de6a48b30"><stop stop-opacity="1" stop-color="rgb(98.81897%, 76.469421%, 0%)" offset="0"/><stop stop-opacity="1" stop-color="rgb(98.623657%, 76.274109%, 0%)" offset="0.5"/><stop stop-opacity="1" stop-color="rgb(98.429871%, 75.88501%, 0%)" offset="0.5625"/><stop stop-opacity="1" stop-color="rgb(98.429871%, 75.592041%, 0%)" offset="0.59375"/><stop stop-opacity="1" stop-color="rgb(98.429871%, 75.390625%, 0%)" offset="0.625"/><stop stop-opacity="1" stop-color="rgb(98.429871%, 75.094604%, 0%)" offset="0.75"/><stop stop-opacity="1" stop-color="rgb(98.234558%, 74.703979%, 0%)" offset="0.875"/><stop stop-opacity="1" stop-color="rgb(98.039246%, 74.313354%, 0.193787%)" offset="1"/></linearGradient><clipPath id="40bc06cca0"><path d="M 632.910156 1287.28125 L 740.257812 1287.28125 L 740.257812 1428.617188 L 632.910156 1428.617188 Z M 632.910156 1287.28125 " clip-rule="nonzero"/></clipPath><clipPath id="f4e9de45c3"><path d="M 712.820312 1287.3125 C 697.667969 1287.3125 685.421875 1299.566406 685.421875 1314.710938 C 685.421875 1318.34375 686.148438 1321.816406 687.441406 1324.980469 L 650.886719 1361.539062 L 650.886719 1375.542969 C 640.394531 1379.394531 632.910156 1389.4375 632.910156 1401.222656 C 632.910156 1416.375 645.164062 1428.617188 660.308594 1428.617188 C 675.460938 1428.617188 687.714844 1416.375 687.714844 1401.222656 C 687.714844 1389.394531 680.230469 1379.355469 669.738281 1375.542969 L 669.738281 1369.320312 L 700.113281 1338.945312 C 703.929688 1340.929688 708.242188 1342.078125 712.859375 1342.078125 C 728.011719 1342.078125 740.257812 1329.824219 740.257812 1314.679688 C 740.257812 1299.527344 728.011719 1287.28125 712.859375 1287.28125 Z M 712.820312 1287.3125 " clip-rule="nonzero"/></clipPath><linearGradient x1="154.070007" gradientTransform="matrix(3.816001, 0, 0, 3.816001, 98.634367, 23.876439)" y1="368.11901" x2="154.070007" gradientUnits="userSpaceOnUse" y2="331.080968" id="3519e0a515"><stop stop-opacity="1" stop-color="rgb(98.81897%, 76.469421%, 0%)" offset="0"/><stop stop-opacity="1" stop-color="rgb(98.81897%, 76.469421%, 0%)" offset="0.5"/><stop stop-opacity="1" stop-color="rgb(98.81897%, 76.274109%, 0%)" offset="0.75"/><stop stop-opacity="1" stop-color="rgb(98.623657%, 75.883484%, 0%)" offset="1"/></linearGradient><clipPath id="02d60bcfa7"><path d="M 1206.308594 698.578125 L 1325.59375 698.578125 L 1325.59375 819.625 L 1206.308594 819.625 Z M 1206.308594 698.578125 " clip-rule="nonzero"/></clipPath><clipPath id="37c2b6e9d1"><path d="M 1298.195312 764.789062 C 1294.070312 764.789062 1290.179688 765.707031 1286.667969 767.347656 L 1257.972656 738.648438 C 1259.957031 734.871094 1261.101562 730.5625 1261.101562 725.984375 C 1261.101562 710.832031 1248.851562 698.578125 1233.707031 698.578125 C 1218.554688 698.578125 1206.308594 710.832031 1206.308594 725.984375 C 1206.308594 741.128906 1218.554688 753.382812 1233.707031 753.382812 C 1237.371094 753.382812 1240.84375 752.65625 1244.007812 751.355469 L 1273.347656 780.707031 C 1271.710938 784.21875 1270.796875 788.109375 1270.796875 792.226562 C 1270.796875 807.378906 1283.042969 819.625 1298.195312 819.625 C 1313.347656 819.625 1325.59375 807.378906 1325.59375 792.226562 C 1325.59375 777.082031 1313.347656 764.828125 1298.195312 764.828125 Z M 1298.195312 764.789062 " clip-rule="nonzero"/></clipPath><linearGradient x1="305.89999" gradientTransform="matrix(3.816001, 0, 0, 3.816001, 98.634367, 23.876439)" y1="208.528931" x2="305.89999" gradientUnits="userSpaceOnUse" y2="176.808919" id="1c2a81212e"><stop stop-opacity="1" stop-color="rgb(96.469116%, 70.199585%, 0.779724%)" offset="0"/><stop stop-opacity="1" stop-color="rgb(96.469116%, 70.199585%, 0.779724%)" offset="0.25"/><stop stop-opacity="1" stop-color="rgb(96.37146%, 70.098877%, 0.779724%)" offset="0.375"/><stop stop-opacity="1" stop-color="rgb(96.176147%, 69.898987%, 0.779724%)" offset="0.5"/><stop stop-opacity="1" stop-color="rgb(96.078491%, 69.604492%, 0.779724%)" offset="0.75"/><stop stop-opacity="1" stop-color="rgb(96.078491%, 69.213867%, 0.779724%)" offset="1"/></linearGradient><clipPath id="9904da8e49"><path d="M 1177.644531 795.816406 L 1304.832031 795.816406 L 1304.832031 1005.429688 L 1177.644531 1005.429688 Z M 1177.644531 795.816406 " clip-rule="nonzero"/></clipPath><clipPath id="2dd8182c42"><path d="M 1286.863281 952.386719 L 1286.863281 891.707031 L 1229.886719 834.742188 C 1231.527344 831.230469 1232.445312 827.332031 1232.445312 823.214844 C 1232.445312 808.0625 1220.191406 795.816406 1205.050781 795.816406 C 1189.898438 795.816406 1177.644531 808.0625 1177.644531 823.214844 C 1177.644531 838.367188 1189.898438 850.613281 1205.050781 850.613281 C 1209.167969 850.613281 1213.058594 849.699219 1216.570312 848.054688 L 1268.011719 899.5 L 1268.011719 952.347656 C 1257.519531 956.199219 1250.035156 966.238281 1250.035156 978.03125 C 1250.035156 993.175781 1262.28125 1005.429688 1277.433594 1005.429688 C 1292.585938 1005.429688 1304.832031 993.175781 1304.832031 978.03125 C 1304.832031 966.199219 1297.355469 956.164062 1286.863281 952.347656 Z M 1286.863281 952.386719 " clip-rule="nonzero"/></clipPath><linearGradient x1="299.42999" gradientTransform="matrix(3.816001, 0, 0, 3.816001, 98.634367, 23.876439)" y1="257.220589" x2="299.42999" gradientUnits="userSpaceOnUse" y2="202.2907" id="df1c23afa5"><stop stop-opacity="1" stop-color="rgb(97.24884%, 72.549438%, 0.389099%)" offset="0"/><stop stop-opacity="1" stop-color="rgb(97.053528%, 72.354126%, 0.389099%)" offset="0.25"/><stop stop-opacity="1" stop-color="rgb(96.859741%, 72.058105%, 0.389099%)" offset="0.3125"/><stop stop-opacity="1" stop-color="rgb(96.859741%, 71.858215%, 0.389099%)" offset="0.375"/><stop stop-opacity="1" stop-color="rgb(96.859741%, 71.563721%, 0.389099%)" offset="0.5"/><stop stop-opacity="1" stop-color="rgb(96.664429%, 71.174622%, 0.389099%)" offset="0.75"/><stop stop-opacity="1" stop-color="rgb(96.469116%, 70.783997%, 0.584412%)" offset="0.875"/><stop stop-opacity="1" stop-color="rgb(96.469116%, 70.393372%, 0.779724%)" offset="1"/></linearGradient><clipPath id="eebd93985e"><path d="M 1060.910156 768.871094 L 1199.246094 768.871094 L 1199.246094 1096.363281 L 1060.910156 1096.363281 Z M 1060.910156 768.871094 " clip-rule="nonzero"/></clipPath><clipPath id="b78a00bb5d"><path d="M 1181.269531 1043.28125 L 1181.269531 970.855469 L 1079.769531 869.347656 L 1079.769531 768.871094 L 1060.910156 788.835938 L 1060.910156 877.171875 L 1162.421875 978.679688 L 1162.421875 1043.28125 C 1151.925781 1047.140625 1144.449219 1057.171875 1144.449219 1068.96875 C 1144.449219 1084.109375 1156.695312 1096.363281 1171.847656 1096.363281 C 1186.992188 1096.363281 1199.246094 1084.109375 1199.246094 1068.96875 C 1199.246094 1057.132812 1191.761719 1047.097656 1181.269531 1043.28125 Z M 1181.269531 1043.28125 " clip-rule="nonzero"/></clipPath><linearGradient x1="270.29001" gradientTransform="matrix(3.816001, 0, 0, 3.816001, 98.634367, 23.876439)" y1="281.050247" x2="270.29001" gradientUnits="userSpaceOnUse" y2="195.229584" id="b51a27954c"><stop stop-opacity="1" stop-color="rgb(97.648621%, 73.329163%, 0.389099%)" offset="0"/><stop stop-opacity="1" stop-color="rgb(97.648621%, 73.13385%, 0.389099%)" offset="0.125"/><stop stop-opacity="1" stop-color="rgb(97.549438%, 72.938538%, 0.389099%)" offset="0.15625"/><stop stop-opacity="1" stop-color="rgb(97.351074%, 72.938538%, 0.389099%)" offset="0.1875"/><stop stop-opacity="1" stop-color="rgb(97.250366%, 72.743225%, 0.389099%)" offset="0.25"/><stop stop-opacity="1" stop-color="rgb(97.24884%, 72.354126%, 0.389099%)" offset="0.375"/><stop stop-opacity="1" stop-color="rgb(97.055054%, 72.158813%, 0.389099%)" offset="0.4375"/><stop stop-opacity="1" stop-color="rgb(96.861267%, 72.059631%, 0.389099%)" offset="0.46875"/><stop stop-opacity="1" stop-color="rgb(96.859741%, 71.859741%, 0.389099%)" offset="0.5"/><stop stop-opacity="1" stop-color="rgb(96.859741%, 71.563721%, 0.389099%)" offset="0.625"/><stop stop-opacity="1" stop-color="rgb(96.664429%, 71.174622%, 0.389099%)" offset="0.75"/><stop stop-opacity="1" stop-color="rgb(96.469116%, 70.785522%, 0.389099%)" offset="0.8125"/><stop stop-opacity="1" stop-color="rgb(96.469116%, 70.49408%, 0.485229%)" offset="0.84375"/><stop stop-opacity="1" stop-color="rgb(96.469116%, 70.297241%, 0.680542%)" offset="0.875"/><stop stop-opacity="1" stop-color="rgb(96.469116%, 70.199585%, 0.779724%)" offset="0.9375"/><stop stop-opacity="1" stop-color="rgb(96.37146%, 70.100403%, 0.779724%)" offset="0.96875"/><stop stop-opacity="1" stop-color="rgb(96.176147%, 69.900513%, 0.779724%)" offset="1"/></linearGradient><clipPath id="941f6ce545"><path d="M 1083.546875 950.707031 L 1180.816406 950.707031 L 1180.816406 1175.890625 L 1083.546875 1175.890625 Z M 1083.546875 950.707031 " clip-rule="nonzero"/></clipPath><clipPath id="68296d1b75"><path d="M 1153.410156 1121.089844 C 1148.453125 1121.089844 1143.796875 1122.429688 1139.792969 1124.753906 L 1120.371094 1105.332031 L 1120.371094 1003.785156 C 1130.867188 999.933594 1138.339844 989.898438 1138.339844 978.105469 C 1138.339844 962.953125 1126.09375 950.707031 1110.941406 950.707031 C 1095.792969 950.707031 1083.546875 962.953125 1083.546875 978.105469 C 1083.546875 989.933594 1091.019531 999.972656 1101.515625 1003.785156 L 1101.515625 1113.113281 L 1127.660156 1139.253906 C 1126.628906 1142.160156 1126.015625 1145.25 1126.015625 1148.488281 C 1126.015625 1163.640625 1138.269531 1175.890625 1153.410156 1175.890625 C 1168.5625 1175.890625 1180.816406 1163.640625 1180.816406 1148.488281 C 1180.816406 1133.34375 1168.5625 1121.089844 1153.410156 1121.089844 Z M 1153.410156 1121.089844 " clip-rule="nonzero"/></clipPath><linearGradient x1="270.84" gradientTransform="matrix(3.816001, 0, 0, 3.816001, 98.634367, 23.876439)" y1="301.890911" x2="270.84" gradientUnits="userSpaceOnUse" y2="242.880475" id="29d71db500"><stop stop-opacity="1" stop-color="rgb(98.039246%, 74.508667%, 0.389099%)" offset="0"/><stop stop-opacity="1" stop-color="rgb(98.039246%, 74.313354%, 0.389099%)" offset="0.125"/><stop stop-opacity="1" stop-color="rgb(97.843933%, 73.924255%, 0.389099%)" offset="0.25"/><stop stop-opacity="1" stop-color="rgb(97.648621%, 73.728943%, 0.389099%)" offset="0.375"/><stop stop-opacity="1" stop-color="rgb(97.648621%, 73.628235%, 0.389099%)" offset="0.4375"/><stop stop-opacity="1" stop-color="rgb(97.648621%, 73.428345%, 0.389099%)" offset="0.5"/><stop stop-opacity="1" stop-color="rgb(97.547913%, 73.231506%, 0.389099%)" offset="0.5625"/><stop stop-opacity="1" stop-color="rgb(97.348022%, 73.036194%, 0.389099%)" offset="0.625"/><stop stop-opacity="1" stop-color="rgb(97.24884%, 72.743225%, 0.389099%)" offset="0.75"/><stop stop-opacity="1" stop-color="rgb(97.053528%, 72.354126%, 0.389099%)" offset="1"/></linearGradient><clipPath id="2b7c6c7ba1"><path d="M 1041.335938 951.089844 L 1121.128906 951.089844 L 1121.128906 1282.582031 L 1041.335938 1282.582031 Z M 1041.335938 951.089844 " clip-rule="nonzero"/></clipPath><clipPath id="2292f341e8"><path d="M 1093.691406 1227.75 C 1089.84375 1227.75 1086.175781 1228.546875 1082.859375 1229.960938 L 1067.515625 1214.625 L 1067.515625 964.253906 L 1054.347656 951.089844 L 1041.335938 964.714844 L 1048.707031 972.074219 L 1048.707031 1222.445312 L 1069.234375 1242.972656 C 1067.402344 1246.636719 1066.335938 1250.796875 1066.335938 1255.1875 C 1066.335938 1270.339844 1078.582031 1282.582031 1093.734375 1282.582031 C 1108.882812 1282.582031 1121.128906 1270.339844 1121.128906 1255.1875 C 1121.128906 1240.035156 1108.882812 1227.789062 1093.734375 1227.789062 Z M 1093.691406 1227.75 " clip-rule="nonzero"/></clipPath><linearGradient x1="257.48999" gradientTransform="matrix(3.816001, 0, 0, 3.816001, 98.634367, 23.876439)" y1="329.849798" x2="257.48999" gradientUnits="userSpaceOnUse" y2="242.979897" id="55f0ec753f"><stop stop-opacity="1" stop-color="rgb(98.429871%, 75.689697%, 0%)" offset="0"/><stop stop-opacity="1" stop-color="rgb(98.429871%, 75.590515%, 0%)" offset="0.03125"/><stop stop-opacity="1" stop-color="rgb(98.429871%, 75.392151%, 0%)" offset="0.0625"/><stop stop-opacity="1" stop-color="rgb(98.429871%, 75.291443%, 0%)" offset="0.125"/><stop stop-opacity="1" stop-color="rgb(98.234558%, 75.094604%, 0%)" offset="0.25"/><stop stop-opacity="1" stop-color="rgb(98.039246%, 74.705505%, 0%)" offset="0.3125"/><stop stop-opacity="1" stop-color="rgb(98.039246%, 74.414062%, 0.0961304%)" offset="0.34375"/><stop stop-opacity="1" stop-color="rgb(98.039246%, 74.217224%, 0.289917%)" offset="0.375"/><stop stop-opacity="1" stop-color="rgb(97.843933%, 73.924255%, 0.389099%)" offset="0.5"/><stop stop-opacity="1" stop-color="rgb(97.648621%, 73.728943%, 0.389099%)" offset="0.5625"/><stop stop-opacity="1" stop-color="rgb(97.648621%, 73.629761%, 0.389099%)" offset="0.59375"/><stop stop-opacity="1" stop-color="rgb(97.648621%, 73.429871%, 0.389099%)" offset="0.625"/><stop stop-opacity="1" stop-color="rgb(97.648621%, 73.135376%, 0.389099%)" offset="0.6875"/><stop stop-opacity="1" stop-color="rgb(97.549438%, 72.940063%, 0.389099%)" offset="0.71875"/><stop stop-opacity="1" stop-color="rgb(97.349548%, 72.938538%, 0.389099%)" offset="0.75"/><stop stop-opacity="1" stop-color="rgb(97.24884%, 72.743225%, 0.389099%)" offset="0.875"/><stop stop-opacity="1" stop-color="rgb(97.053528%, 72.354126%, 0.389099%)" offset="1"/></linearGradient><clipPath id="e2738d14f2"><path d="M 190.824219 306.640625 L 347.054688 306.640625 L 347.054688 501.179688 L 190.824219 501.179688 Z M 190.824219 306.640625 " clip-rule="nonzero"/></clipPath><clipPath id="259ddb17fd"><path d="M 218.191406 501.179688 C 233.34375 501.179688 245.589844 488.933594 245.589844 473.78125 C 245.589844 461.957031 238.105469 451.914062 227.609375 448.105469 L 227.609375 439.402344 L 308.132812 358.882812 C 311.644531 360.519531 315.535156 361.441406 319.660156 361.441406 C 334.804688 361.441406 347.054688 349.1875 347.054688 334.042969 C 347.054688 318.890625 334.804688 306.640625 319.660156 306.640625 C 304.507812 306.640625 292.261719 318.890625 292.261719 334.042969 C 292.261719 338.160156 293.175781 342.050781 294.8125 345.5625 L 208.804688 431.582031 L 208.804688 448.066406 C 198.308594 451.914062 190.824219 461.957031 190.824219 473.742188 C 190.824219 488.894531 203.078125 501.140625 218.230469 501.140625 Z M 218.191406 501.179688 " clip-rule="nonzero"/></clipPath><linearGradient x1="44.619999" gradientTransform="matrix(3.816001, 0, 0, 3.816001, 98.634367, 23.876439)" y1="125.079587" x2="44.619999" gradientUnits="userSpaceOnUse" y2="74.099112" id="c926494f69"><stop stop-opacity="1" stop-color="rgb(94.898987%, 66.668701%, 0.779724%)" offset="0"/><stop stop-opacity="1" stop-color="rgb(94.898987%, 66.668701%, 0.779724%)" offset="0.125"/><stop stop-opacity="1" stop-color="rgb(94.898987%, 66.567993%, 0.878906%)" offset="0.1875"/><stop stop-opacity="1" stop-color="rgb(94.898987%, 66.368103%, 1.078796%)" offset="0.25"/><stop stop-opacity="1" stop-color="rgb(94.703674%, 66.073608%, 1.179504%)" offset="0.5"/><stop stop-opacity="1" stop-color="rgb(94.509888%, 65.684509%, 1.179504%)" offset="0.75"/><stop stop-opacity="1" stop-color="rgb(94.314575%, 65.293884%, 1.179504%)" offset="0.875"/><stop stop-opacity="1" stop-color="rgb(94.119263%, 64.903259%, 1.179504%)" offset="1"/></linearGradient><clipPath id="3a6e15327d"><path d="M 211.699219 166.285156 L 398.074219 166.285156 L 398.074219 352.78125 L 211.699219 352.78125 Z M 211.699219 166.285156 " clip-rule="nonzero"/></clipPath><clipPath id="7cbc9ca05d"><path d="M 239.136719 352.78125 C 254.289062 352.78125 266.535156 340.527344 266.535156 325.382812 C 266.535156 321.257812 265.625 317.367188 263.984375 313.855469 L 359.269531 218.570312 C 362.742188 220.167969 366.589844 221.089844 370.675781 221.089844 C 385.828125 221.089844 398.074219 208.835938 398.074219 193.691406 C 398.074219 178.539062 385.828125 166.285156 370.675781 166.285156 C 355.523438 166.285156 343.277344 178.539062 343.277344 193.691406 C 343.277344 197.847656 344.230469 201.78125 345.871094 205.292969 L 250.625 300.535156 C 247.113281 298.898438 243.222656 297.976562 239.097656 297.976562 C 223.953125 297.976562 211.699219 310.230469 211.699219 325.382812 C 211.699219 340.527344 223.953125 352.78125 239.097656 352.78125 Z M 239.136719 352.78125 " clip-rule="nonzero"/></clipPath><linearGradient x1="54.060001" gradientTransform="matrix(3.816001, 0, 0, 3.816001, 98.634367, 23.876439)" y1="86.190573" x2="54.060001" gradientUnits="userSpaceOnUse" y2="37.319112" id="a36cbdaceb"><stop stop-opacity="1" stop-color="rgb(94.119263%, 65.098572%, 1.179504%)" offset="0"/><stop stop-opacity="1" stop-color="rgb(94.119263%, 64.903259%, 1.179504%)" offset="0.25"/><stop stop-opacity="1" stop-color="rgb(94.119263%, 64.709473%, 1.179504%)" offset="0.375"/><stop stop-opacity="1" stop-color="rgb(94.119263%, 64.608765%, 1.179504%)" offset="0.4375"/><stop stop-opacity="1" stop-color="rgb(94.119263%, 64.408875%, 1.179504%)" offset="0.5"/><stop stop-opacity="1" stop-color="rgb(93.92395%, 64.11438%, 1.179504%)" offset="0.75"/><stop stop-opacity="1" stop-color="rgb(93.728638%, 63.723755%, 1.179504%)" offset="0.875"/><stop stop-opacity="1" stop-color="rgb(93.62793%, 63.430786%, 1.179504%)" offset="0.9375"/><stop stop-opacity="1" stop-color="rgb(93.42804%, 63.237%, 1.179504%)" offset="1"/></linearGradient><clipPath id="1d363b3ca0"><path d="M 174.957031 698.546875 L 294.238281 698.546875 L 294.238281 819.550781 L 174.957031 819.550781 Z M 174.957031 698.546875 " clip-rule="nonzero"/></clipPath><clipPath id="37ff1f3ce2"><path d="M 229.75 792.195312 C 229.75 788.070312 228.796875 784.179688 227.191406 780.667969 L 256.542969 751.324219 C 259.707031 752.613281 263.175781 753.339844 266.84375 753.339844 C 281.996094 753.339844 294.238281 741.097656 294.238281 725.945312 C 294.238281 710.792969 281.996094 698.546875 266.84375 698.546875 C 251.691406 698.546875 239.445312 710.792969 239.445312 725.945312 C 239.445312 730.519531 240.589844 734.832031 242.578125 738.609375 L 213.878906 767.308594 C 210.367188 765.667969 206.476562 764.757812 202.351562 764.757812 C 187.203125 764.757812 174.957031 777 174.957031 792.152344 C 174.957031 807.304688 187.203125 819.550781 202.351562 819.550781 C 217.503906 819.550781 229.75 807.304688 229.75 792.152344 Z M 229.75 792.195312 " clip-rule="nonzero"/></clipPath><linearGradient x1="35.630001" gradientTransform="matrix(3.816001, 0, 0, 3.816001, 98.634367, 23.876439)" y1="208.509893" x2="35.630001" gradientUnits="userSpaceOnUse" y2="176.800465" id="b8bd151775"><stop stop-opacity="1" stop-color="rgb(96.469116%, 70.199585%, 0.779724%)" offset="0"/><stop stop-opacity="1" stop-color="rgb(96.469116%, 70.199585%, 0.779724%)" offset="0.25"/><stop stop-opacity="1" stop-color="rgb(96.37146%, 70.098877%, 0.779724%)" offset="0.375"/><stop stop-opacity="1" stop-color="rgb(96.176147%, 69.898987%, 0.779724%)" offset="0.5"/><stop stop-opacity="1" stop-color="rgb(96.078491%, 69.604492%, 0.779724%)" offset="0.75"/><stop stop-opacity="1" stop-color="rgb(96.078491%, 69.213867%, 0.779724%)" offset="1"/></linearGradient><clipPath id="d18358a097"><path d="M 1282.625 534.035156 L 1401.917969 534.035156 L 1401.917969 655.078125 L 1282.625 655.078125 Z M 1282.625 534.035156 " clip-rule="nonzero"/></clipPath><clipPath id="853e02ac33"><path d="M 1374.511719 600.242188 C 1370.394531 600.242188 1366.503906 601.164062 1362.992188 602.800781 L 1334.292969 574.105469 C 1336.28125 570.328125 1337.425781 566.015625 1337.425781 561.441406 C 1337.425781 546.289062 1325.171875 534.035156 1310.019531 534.035156 C 1294.878906 534.035156 1282.625 546.289062 1282.625 561.441406 C 1282.625 576.582031 1294.878906 588.835938 1310.019531 588.835938 C 1313.6875 588.835938 1317.15625 588.109375 1320.328125 586.8125 L 1349.671875 616.160156 C 1348.035156 619.664062 1347.113281 623.5625 1347.113281 627.679688 C 1347.113281 642.832031 1359.367188 655.078125 1374.511719 655.078125 C 1389.664062 655.078125 1401.917969 642.832031 1401.917969 627.679688 C 1401.917969 612.527344 1389.664062 600.285156 1374.511719 600.285156 Z M 1374.511719 600.242188 " clip-rule="nonzero"/></clipPath><linearGradient x1="325.89999" gradientTransform="matrix(3.816001, 0, 0, 3.816001, 98.634367, 23.876439)" y1="165.40917" x2="325.89999" gradientUnits="userSpaceOnUse" y2="133.689158" id="99ea497321"><stop stop-opacity="1" stop-color="rgb(95.689392%, 68.629456%, 0.779724%)" offset="0"/><stop stop-opacity="1" stop-color="rgb(95.689392%, 68.434143%, 0.779724%)" offset="0.25"/><stop stop-opacity="1" stop-color="rgb(95.588684%, 68.238831%, 0.779724%)" offset="0.375"/><stop stop-opacity="1" stop-color="rgb(95.388794%, 68.238831%, 0.779724%)" offset="0.5"/><stop stop-opacity="1" stop-color="rgb(95.289612%, 68.138123%, 0.779724%)" offset="0.625"/><stop stop-opacity="1" stop-color="rgb(95.289612%, 67.938232%, 0.779724%)" offset="0.75"/><stop stop-opacity="1" stop-color="rgb(95.289612%, 67.643738%, 0.779724%)" offset="1"/></linearGradient><clipPath id="af106e28c9"><path d="M 98.632812 534.003906 L 217.925781 534.003906 L 217.925781 655.003906 L 98.632812 655.003906 Z M 98.632812 534.003906 " clip-rule="nonzero"/></clipPath><clipPath id="d14245862d"><path d="M 153.433594 627.640625 C 153.433594 623.523438 152.476562 619.632812 150.875 616.121094 L 180.21875 586.777344 C 183.390625 588.070312 186.863281 588.796875 190.527344 588.796875 C 205.671875 588.796875 217.925781 576.550781 217.925781 561.398438 C 217.925781 546.246094 205.671875 534.003906 190.527344 534.003906 C 175.375 534.003906 163.121094 546.246094 163.121094 561.398438 C 163.121094 565.976562 164.269531 570.285156 166.253906 574.066406 L 137.558594 602.761719 C 134.046875 601.125 130.15625 600.210938 126.03125 600.210938 C 110.886719 600.210938 98.632812 612.457031 98.632812 627.609375 C 98.632812 642.75 110.886719 655.003906 126.03125 655.003906 C 141.179688 655.003906 153.433594 642.75 153.433594 627.609375 Z M 153.433594 627.640625 " clip-rule="nonzero"/></clipPath><linearGradient x1="15.63" gradientTransform="matrix(3.816001, 0, 0, 3.816001, 98.634367, 23.876439)" y1="165.390135" x2="15.63" gradientUnits="userSpaceOnUse" y2="133.680703" id="e1387c46bf"><stop stop-opacity="1" stop-color="rgb(95.689392%, 68.629456%, 0.779724%)" offset="0"/><stop stop-opacity="1" stop-color="rgb(95.689392%, 68.434143%, 0.779724%)" offset="0.25"/><stop stop-opacity="1" stop-color="rgb(95.588684%, 68.238831%, 0.779724%)" offset="0.375"/><stop stop-opacity="1" stop-color="rgb(95.388794%, 68.238831%, 0.779724%)" offset="0.5"/><stop stop-opacity="1" stop-color="rgb(95.289612%, 68.138123%, 0.779724%)" offset="0.625"/><stop stop-opacity="1" stop-color="rgb(95.289612%, 67.938232%, 0.779724%)" offset="0.75"/><stop stop-opacity="1" stop-color="rgb(95.289612%, 67.643738%, 0.779724%)" offset="1"/></linearGradient><clipPath id="804cc80bd8"><path d="M 266.84375 23.875 L 603.722656 23.875 L 603.722656 192.199219 L 266.84375 192.199219 Z M 266.84375 23.875 " clip-rule="nonzero"/></clipPath><clipPath id="24f44c9907"><path d="M 294.238281 192.199219 C 309.390625 192.199219 321.644531 179.953125 321.644531 164.800781 C 321.644531 160.675781 320.726562 156.785156 319.085938 153.273438 L 411.660156 60.699219 L 550.640625 60.699219 C 554.496094 71.195312 564.53125 78.679688 576.324219 78.679688 C 591.4375 78.679688 603.722656 66.425781 603.722656 51.273438 C 603.722656 36.128906 591.46875 23.875 576.324219 23.875 C 564.492188 23.875 554.457031 31.359375 550.640625 41.851562 L 403.878906 41.851562 L 305.765625 139.960938 C 302.253906 138.316406 298.363281 137.402344 294.238281 137.402344 C 279.097656 137.402344 266.84375 149.648438 266.84375 164.800781 C 266.84375 179.953125 279.097656 192.199219 294.238281 192.199219 Z M 294.238281 192.199219 " clip-rule="nonzero"/></clipPath><linearGradient x1="88.220001" gradientTransform="matrix(3.816001, 0, 0, 3.816001, 98.634367, 23.876439)" y1="44.109443" x2="88.220001" gradientUnits="userSpaceOnUse" y2="-0.000297757" id="04ddc62ddf"><stop stop-opacity="1" stop-color="rgb(93.728638%, 63.528442%, 1.179504%)" offset="0"/><stop stop-opacity="1" stop-color="rgb(93.728638%, 63.33313%, 1.179504%)" offset="0.125"/><stop stop-opacity="1" stop-color="rgb(93.62793%, 63.139343%, 1.179504%)" offset="0.1875"/><stop stop-opacity="1" stop-color="rgb(93.42804%, 63.139343%, 1.179504%)" offset="0.25"/><stop stop-opacity="1" stop-color="rgb(93.328857%, 62.944031%, 1.373291%)" offset="0.5"/><stop stop-opacity="1" stop-color="rgb(93.328857%, 62.64801%, 1.568604%)" offset="0.5625"/><stop stop-opacity="1" stop-color="rgb(93.328857%, 62.44812%, 1.568604%)" offset="0.625"/><stop stop-opacity="1" stop-color="rgb(93.133545%, 62.153625%, 1.568604%)" offset="0.75"/><stop stop-opacity="1" stop-color="rgb(92.939758%, 61.764526%, 1.568604%)" offset="1"/></linearGradient><clipPath id="f0f840abb2"><path d="M 301.304688 768.871094 L 439.628906 768.871094 L 439.628906 1096.363281 L 301.304688 1096.363281 Z M 301.304688 768.871094 " clip-rule="nonzero"/></clipPath><clipPath id="ec390a2f35"><path d="M 356.097656 1068.96875 C 356.097656 1057.132812 348.621094 1047.097656 338.128906 1043.28125 L 338.128906 978.679688 L 439.628906 877.171875 L 439.628906 788.835938 L 420.78125 768.871094 L 420.78125 869.347656 L 319.273438 970.855469 L 319.273438 1043.28125 C 308.777344 1047.140625 301.304688 1057.171875 301.304688 1068.96875 C 301.304688 1084.109375 313.546875 1096.363281 328.699219 1096.363281 C 343.851562 1096.363281 356.097656 1084.109375 356.097656 1068.96875 Z M 356.097656 1068.96875 " clip-rule="nonzero"/></clipPath><linearGradient x1="71.239998" gradientTransform="matrix(3.816001, 0, 0, 3.816001, 98.634367, 23.876439)" y1="281.050247" x2="71.239998" gradientUnits="userSpaceOnUse" y2="195.229584" id="9d5fb9006a"><stop stop-opacity="1" stop-color="rgb(97.648621%, 73.329163%, 0.389099%)" offset="0"/><stop stop-opacity="1" stop-color="rgb(97.648621%, 73.13385%, 0.389099%)" offset="0.125"/><stop stop-opacity="1" stop-color="rgb(97.549438%, 72.938538%, 0.389099%)" offset="0.15625"/><stop stop-opacity="1" stop-color="rgb(97.351074%, 72.938538%, 0.389099%)" offset="0.1875"/><stop stop-opacity="1" stop-color="rgb(97.250366%, 72.743225%, 0.389099%)" offset="0.25"/><stop stop-opacity="1" stop-color="rgb(97.24884%, 72.354126%, 0.389099%)" offset="0.375"/><stop stop-opacity="1" stop-color="rgb(97.055054%, 72.158813%, 0.389099%)" offset="0.4375"/><stop stop-opacity="1" stop-color="rgb(96.861267%, 72.059631%, 0.389099%)" offset="0.46875"/><stop stop-opacity="1" stop-color="rgb(96.859741%, 71.859741%, 0.389099%)" offset="0.5"/><stop stop-opacity="1" stop-color="rgb(96.859741%, 71.563721%, 0.389099%)" offset="0.625"/><stop stop-opacity="1" stop-color="rgb(96.664429%, 71.174622%, 0.389099%)" offset="0.75"/><stop stop-opacity="1" stop-color="rgb(96.469116%, 70.785522%, 0.389099%)" offset="0.8125"/><stop stop-opacity="1" stop-color="rgb(96.469116%, 70.49408%, 0.485229%)" offset="0.84375"/><stop stop-opacity="1" stop-color="rgb(96.469116%, 70.297241%, 0.680542%)" offset="0.875"/><stop stop-opacity="1" stop-color="rgb(96.469116%, 70.199585%, 0.779724%)" offset="0.9375"/><stop stop-opacity="1" stop-color="rgb(96.37146%, 70.100403%, 0.779724%)" offset="0.96875"/><stop stop-opacity="1" stop-color="rgb(96.176147%, 69.900513%, 0.779724%)" offset="1"/></linearGradient><clipPath id="75097af36a"><path d="M 319.773438 950.75 L 417.042969 950.75 L 417.042969 1175.925781 L 319.773438 1175.925781 Z M 319.773438 950.75 " clip-rule="nonzero"/></clipPath><clipPath id="36514c4553"><path d="M 399.066406 1113.15625 L 399.066406 1003.824219 C 409.558594 999.972656 417.042969 989.933594 417.042969 978.144531 C 417.042969 962.996094 404.789062 950.75 389.644531 950.75 C 374.496094 950.75 362.242188 962.996094 362.242188 978.144531 C 362.242188 989.972656 369.722656 1000.007812 380.21875 1003.824219 L 380.21875 1105.375 L 360.796875 1124.796875 C 356.785156 1122.460938 352.132812 1121.128906 347.167969 1121.128906 C 332.019531 1121.128906 319.773438 1133.375 319.773438 1148.527344 C 319.773438 1163.679688 332.019531 1175.925781 347.167969 1175.925781 C 362.320312 1175.925781 374.566406 1163.679688 374.566406 1148.527344 C 374.566406 1145.28125 373.960938 1142.191406 372.929688 1139.292969 Z M 399.066406 1113.15625 " clip-rule="nonzero"/></clipPath><linearGradient x1="70.690002" gradientTransform="matrix(3.816001, 0, 0, 3.816001, 98.634367, 23.876439)" y1="301.899377" x2="70.690002" gradientUnits="userSpaceOnUse" y2="242.891055" id="dbf0aa014a"><stop stop-opacity="1" stop-color="rgb(98.039246%, 74.508667%, 0.389099%)" offset="0"/><stop stop-opacity="1" stop-color="rgb(98.039246%, 74.313354%, 0.389099%)" offset="0.125"/><stop stop-opacity="1" stop-color="rgb(97.843933%, 73.924255%, 0.389099%)" offset="0.25"/><stop stop-opacity="1" stop-color="rgb(97.648621%, 73.728943%, 0.389099%)" offset="0.375"/><stop stop-opacity="1" stop-color="rgb(97.648621%, 73.628235%, 0.389099%)" offset="0.4375"/><stop stop-opacity="1" stop-color="rgb(97.648621%, 73.428345%, 0.389099%)" offset="0.5"/><stop stop-opacity="1" stop-color="rgb(97.547913%, 73.231506%, 0.389099%)" offset="0.5625"/><stop stop-opacity="1" stop-color="rgb(97.348022%, 73.036194%, 0.389099%)" offset="0.625"/><stop stop-opacity="1" stop-color="rgb(97.24884%, 72.743225%, 0.389099%)" offset="0.75"/><stop stop-opacity="1" stop-color="rgb(97.053528%, 72.354126%, 0.389099%)" offset="1"/></linearGradient><clipPath id="1e7756c4ff"><path d="M 195.675781 795.851562 L 322.863281 795.851562 L 322.863281 1005.503906 L 195.675781 1005.503906 Z M 195.675781 795.851562 " clip-rule="nonzero"/></clipPath><clipPath id="120066ce36"><path d="M 322.863281 823.253906 C 322.863281 808.105469 310.609375 795.851562 295.464844 795.851562 C 280.316406 795.851562 268.0625 808.105469 268.0625 823.253906 C 268.0625 827.371094 268.980469 831.261719 270.621094 834.773438 L 213.644531 891.75 L 213.644531 952.421875 C 203.152344 956.277344 195.675781 966.3125 195.675781 978.105469 C 195.675781 993.257812 207.921875 1005.503906 223.074219 1005.503906 C 238.226562 1005.503906 250.472656 993.257812 250.472656 978.105469 C 250.472656 966.273438 242.996094 956.238281 232.503906 952.421875 L 232.503906 899.570312 L 283.941406 848.132812 C 287.449219 849.773438 291.34375 850.691406 295.464844 850.691406 C 310.578125 850.691406 322.863281 838.441406 322.863281 823.289062 Z M 322.863281 823.253906 " clip-rule="nonzero"/></clipPath><linearGradient x1="42.099998" gradientTransform="matrix(3.816001, 0, 0, 3.816001, 98.634367, 23.876439)" y1="257.239608" x2="42.099998" gradientUnits="userSpaceOnUse" y2="202.299162" id="ad26bc4de6"><stop stop-opacity="1" stop-color="rgb(97.24884%, 72.549438%, 0.389099%)" offset="0"/><stop stop-opacity="1" stop-color="rgb(97.053528%, 72.354126%, 0.389099%)" offset="0.25"/><stop stop-opacity="1" stop-color="rgb(96.859741%, 72.058105%, 0.389099%)" offset="0.3125"/><stop stop-opacity="1" stop-color="rgb(96.859741%, 71.858215%, 0.389099%)" offset="0.375"/><stop stop-opacity="1" stop-color="rgb(96.859741%, 71.563721%, 0.389099%)" offset="0.5"/><stop stop-opacity="1" stop-color="rgb(96.664429%, 71.174622%, 0.389099%)" offset="0.75"/><stop stop-opacity="1" stop-color="rgb(96.469116%, 70.783997%, 0.584412%)" offset="0.875"/><stop stop-opacity="1" stop-color="rgb(96.469116%, 70.393372%, 0.779724%)" offset="1"/></linearGradient><clipPath id="a0df0e65e3"><path d="M 379.449219 951.046875 L 459.246094 951.046875 L 459.246094 1282.542969 L 379.449219 1282.542969 Z M 379.449219 951.046875 " clip-rule="nonzero"/></clipPath><clipPath id="4aa8d93e3f"><path d="M 433.035156 964.253906 L 433.035156 1214.625 L 417.6875 1229.960938 C 414.371094 1228.507812 410.707031 1227.75 406.855469 1227.75 C 391.703125 1227.75 379.449219 1239.996094 379.449219 1255.144531 C 379.449219 1270.296875 391.703125 1282.542969 406.855469 1282.542969 C 422 1282.542969 434.253906 1270.296875 434.253906 1255.144531 C 434.253906 1250.753906 433.179688 1246.636719 431.355469 1242.933594 L 451.882812 1222.40625 L 451.882812 972.035156 L 459.246094 964.671875 L 446.234375 951.046875 L 433.066406 964.214844 Z M 433.035156 964.253906 " clip-rule="nonzero"/></clipPath><linearGradient x1="84.040001" gradientTransform="matrix(3.816001, 0, 0, 3.816001, 98.634367, 23.876439)" y1="329.839201" x2="84.040001" gradientUnits="userSpaceOnUse" y2="242.96932" id="ef3c1c70e1"><stop stop-opacity="1" stop-color="rgb(98.429871%, 75.689697%, 0%)" offset="0"/><stop stop-opacity="1" stop-color="rgb(98.429871%, 75.590515%, 0%)" offset="0.03125"/><stop stop-opacity="1" stop-color="rgb(98.429871%, 75.392151%, 0%)" offset="0.0625"/><stop stop-opacity="1" stop-color="rgb(98.429871%, 75.291443%, 0%)" offset="0.125"/><stop stop-opacity="1" stop-color="rgb(98.234558%, 75.094604%, 0%)" offset="0.25"/><stop stop-opacity="1" stop-color="rgb(98.039246%, 74.705505%, 0%)" offset="0.3125"/><stop stop-opacity="1" stop-color="rgb(98.039246%, 74.414062%, 0.0961304%)" offset="0.34375"/><stop stop-opacity="1" stop-color="rgb(98.039246%, 74.217224%, 0.289917%)" offset="0.375"/><stop stop-opacity="1" stop-color="rgb(97.843933%, 73.924255%, 0.389099%)" offset="0.5"/><stop stop-opacity="1" stop-color="rgb(97.648621%, 73.728943%, 0.389099%)" offset="0.5625"/><stop stop-opacity="1" stop-color="rgb(97.648621%, 73.629761%, 0.389099%)" offset="0.59375"/><stop stop-opacity="1" stop-color="rgb(97.648621%, 73.429871%, 0.389099%)" offset="0.625"/><stop stop-opacity="1" stop-color="rgb(97.648621%, 73.135376%, 0.389099%)" offset="0.6875"/><stop stop-opacity="1" stop-color="rgb(97.549438%, 72.940063%, 0.389099%)" offset="0.71875"/><stop stop-opacity="1" stop-color="rgb(97.349548%, 72.938538%, 0.389099%)" offset="0.75"/><stop stop-opacity="1" stop-color="rgb(97.24884%, 72.743225%, 0.389099%)" offset="0.875"/><stop stop-opacity="1" stop-color="rgb(97.053528%, 72.354126%, 0.389099%)" offset="1"/></linearGradient><clipPath id="aaabac74df"><path d="M 468.980469 1200.3125 L 601.582031 1200.3125 L 601.582031 1380.316406 L 468.980469 1380.316406 Z M 468.980469 1200.3125 " clip-rule="nonzero"/></clipPath><clipPath id="aa53dfd4fe"><path d="M 505.796875 1327.230469 L 505.796875 1310.367188 L 563.3125 1252.855469 C 566.671875 1254.304688 570.328125 1255.105469 574.1875 1255.105469 C 589.335938 1255.105469 601.582031 1242.859375 601.582031 1227.707031 C 601.582031 1212.558594 589.335938 1200.3125 574.1875 1200.3125 C 559.035156 1200.3125 546.789062 1212.558594 546.789062 1227.707031 C 546.789062 1232.058594 547.8125 1236.183594 549.644531 1239.839844 L 486.949219 1302.539062 L 486.949219 1327.230469 C 476.453125 1331.082031 468.980469 1341.125 468.980469 1352.910156 C 468.980469 1368.0625 481.226562 1380.316406 496.378906 1380.316406 C 511.527344 1380.316406 523.773438 1368.0625 523.773438 1352.910156 C 523.773438 1341.082031 516.292969 1331.050781 505.796875 1327.230469 Z M 505.796875 1327.230469 " clip-rule="nonzero"/></clipPath><linearGradient x1="114.419998" gradientTransform="matrix(3.816001, 0, 0, 3.816001, 98.634367, 23.876439)" y1="355.460619" x2="114.419998" gradientUnits="userSpaceOnUse" y2="308.289918" id="ab617d5508"><stop stop-opacity="1" stop-color="rgb(98.81897%, 76.469421%, 0%)" offset="0"/><stop stop-opacity="1" stop-color="rgb(98.81897%, 76.469421%, 0%)" offset="0.25"/><stop stop-opacity="1" stop-color="rgb(98.81897%, 76.274109%, 0%)" offset="0.375"/><stop stop-opacity="1" stop-color="rgb(98.623657%, 75.883484%, 0%)" offset="0.5"/><stop stop-opacity="1" stop-color="rgb(98.429871%, 75.689697%, 0%)" offset="0.625"/><stop stop-opacity="1" stop-color="rgb(98.429871%, 75.588989%, 0%)" offset="0.6875"/><stop stop-opacity="1" stop-color="rgb(98.429871%, 75.389099%, 0%)" offset="0.75"/><stop stop-opacity="1" stop-color="rgb(98.234558%, 75.094604%, 0%)" offset="1"/></linearGradient></defs><rect x="-150" width="1800" fill="#ffffff" y="-149.999993" height="1799.99992" fill-opacity="1"/><rect x="-150" width="1800" fill="#000000" y="-149.999993" height="1799.99992" fill-opacity="1"/><g clip-path="url(#5ee48e9e78)"><g clip-path="url(#2cd98e5fd5)"><path fill="url(#bf5e504373)" d="M 887.859375 246.007812 L 887.859375 433.710938 L 1193.902344 433.710938 L 1193.902344 246.007812 Z M 887.859375 246.007812 " fill-rule="nonzero"/></g></g><g clip-path="url(#a4c0fe4d0c)"><g clip-path="url(#8af28edafd)"><path fill="url(#7e592b6b9d)" d="M 1039.625 396.886719 L 1039.625 792.195312 L 1208.214844 792.195312 L 1208.214844 396.886719 Z M 1039.625 396.886719 " fill-rule="nonzero"/></g></g><g clip-path="url(#d2a14b3652)"><g clip-path="url(#fc5bfce13c)"><path fill="url(#b2a7087c34)" d="M 1102.476562 166.285156 L 1102.476562 352.78125 L 1288.808594 352.78125 L 1288.808594 166.285156 Z M 1102.476562 166.285156 " fill-rule="nonzero"/></g></g><g clip-path="url(#14cb8cd083)"><g clip-path="url(#5fe248b23a)"><path fill="url(#4e8027fa61)" d="M 360.5625 193.117188 L 360.5625 346.710938 L 717.015625 346.710938 L 717.015625 193.117188 Z M 360.5625 193.117188 " fill-rule="nonzero"/></g></g><g clip-path="url(#f80f9d56c4)"><g clip-path="url(#fb27a22435)"><path fill="url(#36e82a4dd8)" d="M 239.097656 297.945312 L 239.097656 671.683594 L 540.871094 671.683594 L 540.871094 297.945312 Z M 239.097656 297.945312 " fill-rule="nonzero"/></g></g><g clip-path="url(#de4fffdc26)"><g clip-path="url(#27ab2fff47)"><path fill="url(#e7bf52ee1b)" d="M 765.515625 107.980469 L 765.515625 215.398438 L 974.101562 215.398438 L 974.101562 107.980469 Z M 765.515625 107.980469 " fill-rule="nonzero"/></g></g><g clip-path="url(#bc19e2ce5a)"><g clip-path="url(#f5f7fe9c6b)"><path fill="url(#d18242c9fd)" d="M 306.679688 246.007812 L 306.679688 433.710938 L 611.277344 433.710938 L 611.277344 246.007812 Z M 306.679688 246.007812 " fill-rule="nonzero"/></g></g><g clip-path="url(#c11c901f7e)"><g clip-path="url(#4643010111)"><path fill="url(#318a9d0ad9)" d="M 783.574219 193.117188 L 783.574219 343.65625 L 1140.019531 343.65625 L 1140.019531 193.117188 Z M 783.574219 193.117188 " fill-rule="nonzero"/></g></g><g clip-path="url(#25a519eb8a)"><g clip-path="url(#15848f7388)"><path fill="url(#9486bd95f3)" d="M 292.335938 396.886719 L 292.335938 792.195312 L 460.925781 792.195312 L 460.925781 396.886719 Z M 292.335938 396.886719 " fill-rule="nonzero"/></g></g><g clip-path="url(#bae261ed1d)"><g clip-path="url(#88da6d059c)"><path fill="url(#b85ec16ded)" d="M 959.371094 297.90625 L 959.371094 671.640625 L 1261.410156 671.640625 L 1261.410156 297.90625 Z M 959.371094 297.90625 " fill-rule="nonzero"/></g></g><g clip-path="url(#30dfd64fd3)"><g clip-path="url(#28f84c9ed8)"><path fill="url(#aa0d54c375)" d="M 322.976562 721.898438 L 322.976562 890.910156 L 395.289062 890.910156 L 395.289062 721.898438 Z M 322.976562 721.898438 " fill-rule="nonzero"/></g></g><g clip-path="url(#7be44819af)"><g clip-path="url(#02ad1fba3b)"><path fill="url(#9c5ffd6145)" d="M 1153.53125 306.640625 L 1153.53125 501.179688 L 1309.796875 501.179688 L 1309.796875 306.640625 Z M 1153.53125 306.640625 " fill-rule="nonzero"/></g></g><g clip-path="url(#d706730eb3)"><g clip-path="url(#7f04a6063d)"><path fill="url(#86f7a9a27b)" d="M 934.378906 1008.023438 L 934.378906 1189.511719 L 999.933594 1189.511719 L 999.933594 1008.023438 Z M 934.378906 1008.023438 " fill-rule="nonzero"/></g></g><g clip-path="url(#e8173f4953)"><g clip-path="url(#50bc5470fc)"><path fill="url(#ac07b99e72)" d="M 1105.261719 721.898438 L 1105.261719 890.910156 L 1177.570312 890.910156 L 1177.570312 721.898438 Z M 1105.261719 721.898438 " fill-rule="nonzero"/></g></g><g clip-path="url(#605fb16a57)"><g clip-path="url(#7d3f214da6)"><path fill="url(#2351dfd122)" d="M 840.351562 534.113281 L 840.351562 593.21875 L 959.449219 593.21875 L 959.449219 534.113281 Z M 840.351562 534.113281 " fill-rule="nonzero"/></g></g><g clip-path="url(#38d6dcf921)"><g clip-path="url(#1c51301446)"><path fill="url(#ddf1c66c56)" d="M 541.097656 534.074219 L 541.097656 593.21875 L 660.195312 593.21875 L 660.195312 534.074219 Z M 541.097656 534.074219 " fill-rule="nonzero"/></g></g><g clip-path="url(#4f8b930eca)"><g clip-path="url(#dbfe8c199c)"><path fill="url(#b3202c763b)" d="M 372.929688 317.972656 L 372.929688 1020.726562 L 1127.691406 1020.726562 L 1127.691406 317.972656 Z M 372.929688 317.972656 " fill-rule="nonzero"/></g></g><g clip-path="url(#091b81615e)"><g clip-path="url(#857ab14bcd)"><path fill="url(#c0baa070fa)" d="M 500.617188 1008.023438 L 500.617188 1189.511719 L 566.171875 1189.511719 L 566.171875 1008.023438 Z M 500.617188 1008.023438 " fill-rule="nonzero"/></g></g><g clip-path="url(#65ff26fbb2)"><g clip-path="url(#31671585f7)"><path fill="url(#3206ad9568)" d="M 573.953125 928.195312 L 573.953125 1191.875 L 926.628906 1191.875 L 926.628906 928.195312 Z M 573.953125 928.195312 " fill-rule="nonzero"/></g></g><g clip-path="url(#1887a05e80)"><g clip-path="url(#51b202563d)"><path fill="url(#2b03648dbf)" d="M 896.828125 23.875 L 896.828125 192.199219 L 1233.707031 192.199219 L 1233.707031 23.875 Z M 896.828125 23.875 " fill-rule="nonzero"/></g></g><g clip-path="url(#f56556013d)"><g clip-path="url(#cd84bced79)"><path fill="url(#a3e55dce0a)" d="M 800.054688 1139.980469 L 800.054688 1476.109375 L 939.179688 1476.109375 L 939.179688 1139.980469 Z M 800.054688 1139.980469 " fill-rule="nonzero"/></g></g><g clip-path="url(#04d097a894)"><g clip-path="url(#18fc8fc1d9)"><path fill="url(#e8f869ceb8)" d="M 526.375 108.019531 L 526.375 215.4375 L 734.953125 215.4375 L 734.953125 108.019531 Z M 526.375 108.019531 " fill-rule="nonzero"/></g></g><g clip-path="url(#dc5f5572cb)"><g clip-path="url(#892b0b8942)"><path fill="url(#c8496edbdd)" d="M 898.964844 1200.3125 L 898.964844 1380.316406 L 1031.570312 1380.316406 L 1031.570312 1200.3125 Z M 898.964844 1200.3125 " fill-rule="nonzero"/></g></g><g clip-path="url(#5c850413bf)"><g clip-path="url(#07bee0a143)"><path fill="url(#3b6233d312)" d="M 760.332031 1287.28125 L 760.332031 1428.617188 L 867.667969 1428.617188 L 867.667969 1287.28125 Z M 760.332031 1287.28125 " fill-rule="nonzero"/></g></g><g clip-path="url(#20a4c3491e)"><g clip-path="url(#f6b7d5653e)"><path fill="url(#7de6a48b30)" d="M 561.441406 1139.9375 L 561.441406 1476.109375 L 700.53125 1476.109375 L 700.53125 1139.9375 Z M 561.441406 1139.9375 " fill-rule="nonzero"/></g></g><g clip-path="url(#40bc06cca0)"><g clip-path="url(#f4e9de45c3)"><path fill="url(#3519e0a515)" d="M 632.910156 1287.28125 L 632.910156 1428.617188 L 740.257812 1428.617188 L 740.257812 1287.28125 Z M 632.910156 1287.28125 " fill-rule="nonzero"/></g></g><g clip-path="url(#02d60bcfa7)"><g clip-path="url(#37c2b6e9d1)"><path fill="url(#1c2a81212e)" d="M 1206.308594 698.578125 L 1206.308594 819.625 L 1325.59375 819.625 L 1325.59375 698.578125 Z M 1206.308594 698.578125 " fill-rule="nonzero"/></g></g><g clip-path="url(#9904da8e49)"><g clip-path="url(#2dd8182c42)"><path fill="url(#df1c23afa5)" d="M 1177.644531 795.816406 L 1177.644531 1005.429688 L 1304.832031 1005.429688 L 1304.832031 795.816406 Z M 1177.644531 795.816406 " fill-rule="nonzero"/></g></g><g clip-path="url(#eebd93985e)"><g clip-path="url(#b78a00bb5d)"><path fill="url(#b51a27954c)" d="M 1060.910156 768.871094 L 1060.910156 1096.363281 L 1199.246094 1096.363281 L 1199.246094 768.871094 Z M 1060.910156 768.871094 " fill-rule="nonzero"/></g></g><g clip-path="url(#941f6ce545)"><g clip-path="url(#68296d1b75)"><path fill="url(#29d71db500)" d="M 1083.546875 950.707031 L 1083.546875 1175.890625 L 1180.816406 1175.890625 L 1180.816406 950.707031 Z M 1083.546875 950.707031 " fill-rule="nonzero"/></g></g><g clip-path="url(#2b7c6c7ba1)"><g clip-path="url(#2292f341e8)"><path fill="url(#55f0ec753f)" d="M 1041.335938 951.089844 L 1041.335938 1282.582031 L 1121.128906 1282.582031 L 1121.128906 951.089844 Z M 1041.335938 951.089844 " fill-rule="nonzero"/></g></g><g clip-path="url(#e2738d14f2)"><g clip-path="url(#259ddb17fd)"><path fill="url(#c926494f69)" d="M 190.824219 306.640625 L 190.824219 501.179688 L 347.054688 501.179688 L 347.054688 306.640625 Z M 190.824219 306.640625 " fill-rule="nonzero"/></g></g><g clip-path="url(#3a6e15327d)"><g clip-path="url(#7cbc9ca05d)"><path fill="url(#a36cbdaceb)" d="M 211.699219 166.285156 L 211.699219 352.78125 L 398.074219 352.78125 L 398.074219 166.285156 Z M 211.699219 166.285156 " fill-rule="nonzero"/></g></g><g clip-path="url(#1d363b3ca0)"><g clip-path="url(#37ff1f3ce2)"><path fill="url(#b8bd151775)" d="M 174.957031 698.546875 L 174.957031 819.550781 L 294.238281 819.550781 L 294.238281 698.546875 Z M 174.957031 698.546875 " fill-rule="nonzero"/></g></g><g clip-path="url(#d18358a097)"><g clip-path="url(#853e02ac33)"><path fill="url(#99ea497321)" d="M 1282.625 534.035156 L 1282.625 655.078125 L 1401.917969 655.078125 L 1401.917969 534.035156 Z M 1282.625 534.035156 " fill-rule="nonzero"/></g></g><g clip-path="url(#af106e28c9)"><g clip-path="url(#d14245862d)"><path fill="url(#e1387c46bf)" d="M 98.632812 534.003906 L 98.632812 655.003906 L 217.925781 655.003906 L 217.925781 534.003906 Z M 98.632812 534.003906 " fill-rule="nonzero"/></g></g><g clip-path="url(#804cc80bd8)"><g clip-path="url(#24f44c9907)"><path fill="url(#04ddc62ddf)" d="M 266.84375 23.875 L 266.84375 192.199219 L 603.722656 192.199219 L 603.722656 23.875 Z M 266.84375 23.875 " fill-rule="nonzero"/></g></g><g clip-path="url(#f0f840abb2)"><g clip-path="url(#ec390a2f35)"><path fill="url(#9d5fb9006a)" d="M 301.304688 768.871094 L 301.304688 1096.363281 L 439.628906 1096.363281 L 439.628906 768.871094 Z M 301.304688 768.871094 " fill-rule="nonzero"/></g></g><g clip-path="url(#75097af36a)"><g clip-path="url(#36514c4553)"><path fill="url(#dbf0aa014a)" d="M 319.773438 950.75 L 319.773438 1175.925781 L 417.042969 1175.925781 L 417.042969 950.75 Z M 319.773438 950.75 " fill-rule="nonzero"/></g></g><g clip-path="url(#1e7756c4ff)"><g clip-path="url(#120066ce36)"><path fill="url(#ad26bc4de6)" d="M 195.675781 795.851562 L 195.675781 1005.503906 L 322.863281 1005.503906 L 322.863281 795.851562 Z M 195.675781 795.851562 " fill-rule="nonzero"/></g></g><g clip-path="url(#a0df0e65e3)"><g clip-path="url(#4aa8d93e3f)"><path fill="url(#ef3c1c70e1)" d="M 379.449219 951.046875 L 379.449219 1282.542969 L 459.246094 1282.542969 L 459.246094 951.046875 Z M 379.449219 951.046875 " fill-rule="nonzero"/></g></g><g clip-path="url(#aaabac74df)"><g clip-path="url(#aa53dfd4fe)"><path fill="url(#ab617d5508)" d="M 468.980469 1200.3125 L 468.980469 1380.316406 L 601.582031 1380.316406 L 601.582031 1200.3125 Z M 468.980469 1200.3125 " fill-rule="nonzero"/></g></g></svg>